<svg width="1601" height="1226" viewBox="0 0 1601 1226" fill="none"
  xmlns="http://www.w3.org/2000/svg">
  <g filter="url(#filter0_d_515_781)">
    <rect x="105" y="101" width="1391" height="1016" rx="60" fill="#EEEEEE" />
    <line x1="801.5" y1="101" x2="801.5" y2="1117" stroke="#0EA5E9" stroke-dasharray="25 25" />
    <path
      d="M414.839 178.909L421.87 201.011H422.14L429.185 178.909H436.004L425.975 208H418.049L408.006 178.909H414.839ZM446.788 208.426C444.582 208.426 442.674 207.957 441.064 207.02C439.464 206.073 438.228 204.757 437.357 203.071C436.485 201.376 436.05 199.411 436.05 197.176C436.05 194.922 436.485 192.953 437.357 191.267C438.228 189.572 439.464 188.256 441.064 187.318C442.674 186.371 444.582 185.898 446.788 185.898C448.995 185.898 450.898 186.371 452.499 187.318C454.108 188.256 455.349 189.572 456.22 191.267C457.091 192.953 457.527 194.922 457.527 197.176C457.527 199.411 457.091 201.376 456.22 203.071C455.349 204.757 454.108 206.073 452.499 207.02C450.898 207.957 448.995 208.426 446.788 208.426ZM446.817 203.739C447.821 203.739 448.659 203.455 449.331 202.886C450.003 202.309 450.51 201.523 450.851 200.528C451.201 199.534 451.376 198.402 451.376 197.134C451.376 195.865 451.201 194.733 450.851 193.739C450.51 192.744 450.003 191.958 449.331 191.381C448.659 190.803 447.821 190.514 446.817 190.514C445.804 190.514 444.951 190.803 444.26 191.381C443.578 191.958 443.062 192.744 442.712 193.739C442.371 194.733 442.2 195.865 442.2 197.134C442.2 198.402 442.371 199.534 442.712 200.528C443.062 201.523 443.578 202.309 444.26 202.886C444.951 203.455 445.804 203.739 446.817 203.739ZM471.32 208.426C469.113 208.426 467.205 207.957 465.595 207.02C463.995 206.073 462.759 204.757 461.888 203.071C461.017 201.376 460.581 199.411 460.581 197.176C460.581 194.922 461.017 192.953 461.888 191.267C462.759 189.572 463.995 188.256 465.595 187.318C467.205 186.371 469.113 185.898 471.32 185.898C473.526 185.898 475.429 186.371 477.03 187.318C478.64 188.256 479.88 189.572 480.751 191.267C481.623 192.953 482.058 194.922 482.058 197.176C482.058 199.411 481.623 201.376 480.751 203.071C479.88 204.757 478.64 206.073 477.03 207.02C475.429 207.957 473.526 208.426 471.32 208.426ZM471.348 203.739C472.352 203.739 473.19 203.455 473.862 202.886C474.535 202.309 475.041 201.523 475.382 200.528C475.732 199.534 475.908 198.402 475.908 197.134C475.908 195.865 475.732 194.733 475.382 193.739C475.041 192.744 474.535 191.958 473.862 191.381C473.19 190.803 472.352 190.514 471.348 190.514C470.335 190.514 469.482 190.803 468.791 191.381C468.109 191.958 467.593 192.744 467.243 193.739C466.902 194.733 466.732 195.865 466.732 197.134C466.732 198.402 466.902 199.534 467.243 200.528C467.593 201.523 468.109 202.309 468.791 202.886C469.482 203.455 470.335 203.739 471.348 203.739ZM485.993 208V186.182H491.859V189.989H492.087C492.484 188.634 493.152 187.612 494.089 186.92C495.027 186.22 496.107 185.869 497.328 185.869C497.631 185.869 497.958 185.888 498.308 185.926C498.659 185.964 498.966 186.016 499.232 186.082V191.452C498.947 191.366 498.554 191.291 498.053 191.224C497.551 191.158 497.091 191.125 496.675 191.125C495.785 191.125 494.989 191.319 494.288 191.707C493.597 192.086 493.048 192.616 492.641 193.298C492.243 193.98 492.044 194.766 492.044 195.656V208H485.993Z"
      fill="#0092D3" />
    <path
      d="M1149.05 178.909V208H1143.74L1131.08 189.69H1130.87V208H1124.72V178.909H1130.12L1142.67 197.205H1142.93V178.909H1149.05ZM1160.24 208.412C1158.85 208.412 1157.61 208.17 1156.52 207.688C1155.43 207.195 1154.57 206.471 1153.94 205.514C1153.31 204.548 1153 203.346 1153 201.906C1153 200.694 1153.22 199.676 1153.67 198.852C1154.11 198.028 1154.72 197.366 1155.48 196.864C1156.25 196.362 1157.12 195.983 1158.1 195.727C1159.08 195.472 1160.11 195.292 1161.19 195.188C1162.46 195.055 1163.49 194.932 1164.26 194.818C1165.04 194.695 1165.6 194.515 1165.95 194.278C1166.3 194.042 1166.48 193.691 1166.48 193.227V193.142C1166.48 192.242 1166.19 191.546 1165.63 191.054C1165.07 190.562 1164.27 190.315 1163.24 190.315C1162.15 190.315 1161.28 190.557 1160.64 191.04C1160 191.513 1159.57 192.11 1159.36 192.83L1153.76 192.375C1154.05 191.049 1154.61 189.903 1155.44 188.938C1156.27 187.962 1157.35 187.214 1158.67 186.693C1159.99 186.163 1161.52 185.898 1163.27 185.898C1164.48 185.898 1165.64 186.04 1166.75 186.324C1167.86 186.608 1168.85 187.048 1169.72 187.645C1170.59 188.241 1171.27 189.009 1171.78 189.946C1172.28 190.874 1172.53 191.987 1172.53 193.284V208H1166.79V204.974H1166.62C1166.27 205.656 1165.8 206.258 1165.21 206.778C1164.63 207.29 1163.92 207.692 1163.1 207.986C1162.27 208.27 1161.32 208.412 1160.24 208.412ZM1161.97 204.236C1162.86 204.236 1163.65 204.061 1164.33 203.71C1165.01 203.35 1165.55 202.867 1165.94 202.261C1166.33 201.655 1166.52 200.969 1166.52 200.202V197.886C1166.33 198.009 1166.07 198.123 1165.74 198.227C1165.42 198.322 1165.05 198.412 1164.65 198.497C1164.24 198.573 1163.83 198.644 1163.42 198.71C1163.02 198.767 1162.65 198.819 1162.32 198.866C1161.61 198.971 1160.99 199.136 1160.45 199.364C1159.92 199.591 1159.51 199.899 1159.22 200.287C1158.93 200.666 1158.78 201.139 1158.78 201.707C1158.78 202.531 1159.08 203.161 1159.67 203.597C1160.28 204.023 1161.05 204.236 1161.97 204.236Z"
      fill="#0092D3" />
    <rect x="251" y="414" width="405" height="70" rx="27" fill="#0092D3" />
    <path
      d="M341.344 460H338.574L346.585 438.182H349.312L357.324 460H354.554L348.034 441.634H347.863L341.344 460ZM342.366 451.477H353.531V453.821H342.366V451.477ZM365.197 460.384C364.16 460.384 363.219 460.188 362.373 459.798C361.528 459.4 360.857 458.828 360.36 458.082C359.863 457.33 359.614 456.42 359.614 455.355C359.614 454.418 359.799 453.658 360.168 453.075C360.537 452.486 361.031 452.024 361.649 451.69C362.267 451.357 362.949 451.108 363.694 450.945C364.447 450.774 365.204 450.639 365.964 450.54C366.958 450.412 367.764 450.316 368.382 450.252C369.007 450.181 369.461 450.064 369.746 449.901C370.037 449.737 370.182 449.453 370.182 449.048V448.963C370.182 447.912 369.895 447.095 369.319 446.513C368.751 445.93 367.888 445.639 366.731 445.639C365.53 445.639 364.589 445.902 363.907 446.428C363.226 446.953 362.746 447.514 362.469 448.111L360.083 447.259C360.509 446.264 361.077 445.49 361.787 444.936C362.505 444.375 363.286 443.984 364.131 443.764C364.983 443.537 365.822 443.423 366.645 443.423C367.171 443.423 367.775 443.487 368.456 443.615C369.145 443.736 369.809 443.988 370.449 444.371C371.095 444.755 371.631 445.334 372.057 446.108C372.483 446.882 372.697 447.919 372.697 449.219V460H370.182V457.784H370.055C369.884 458.139 369.6 458.519 369.202 458.924C368.805 459.329 368.275 459.673 367.615 459.957C366.954 460.241 366.148 460.384 365.197 460.384ZM365.58 458.125C366.574 458.125 367.412 457.93 368.094 457.539C368.783 457.148 369.302 456.644 369.65 456.026C370.005 455.408 370.182 454.759 370.182 454.077V451.776C370.076 451.903 369.841 452.021 369.479 452.127C369.124 452.227 368.712 452.315 368.243 452.393C367.782 452.464 367.331 452.528 366.89 452.585C366.457 452.635 366.106 452.678 365.836 452.713C365.182 452.798 364.572 452.937 364.003 453.129C363.442 453.313 362.988 453.594 362.64 453.97C362.299 454.339 362.128 454.844 362.128 455.483C362.128 456.357 362.452 457.017 363.098 457.464C363.751 457.905 364.579 458.125 365.58 458.125ZM379.8 450.156V460H377.286V443.636H379.714V446.193H379.928C380.311 445.362 380.893 444.695 381.675 444.19C382.456 443.679 383.464 443.423 384.7 443.423C385.808 443.423 386.778 443.651 387.609 444.105C388.44 444.553 389.086 445.234 389.548 446.151C390.009 447.06 390.24 448.21 390.24 449.602V460H387.726V449.773C387.726 448.487 387.392 447.486 386.724 446.768C386.057 446.044 385.141 445.682 383.976 445.682C383.173 445.682 382.456 445.856 381.824 446.204C381.199 446.552 380.705 447.06 380.343 447.727C379.981 448.395 379.8 449.205 379.8 450.156ZM401.013 460.341C399.65 460.341 398.446 459.996 397.402 459.308C396.358 458.612 395.541 457.631 394.952 456.367C394.362 455.096 394.067 453.594 394.067 451.861C394.067 450.142 394.362 448.651 394.952 447.386C395.541 446.122 396.361 445.146 397.412 444.457C398.464 443.768 399.678 443.423 401.056 443.423C402.121 443.423 402.963 443.601 403.581 443.956C404.206 444.304 404.682 444.702 405.008 445.149C405.342 445.589 405.601 445.952 405.786 446.236H405.999V438.182H408.513V460H406.084V457.486H405.786C405.601 457.784 405.339 458.161 404.998 458.615C404.657 459.062 404.17 459.464 403.538 459.819C402.906 460.167 402.064 460.341 401.013 460.341ZM401.354 458.082C402.363 458.082 403.215 457.82 403.911 457.294C404.607 456.761 405.136 456.026 405.498 455.089C405.861 454.144 406.042 453.054 406.042 451.818C406.042 450.597 405.864 449.528 405.509 448.612C405.154 447.688 404.628 446.971 403.932 446.46C403.236 445.941 402.377 445.682 401.354 445.682C400.289 445.682 399.401 445.955 398.691 446.502C397.988 447.042 397.459 447.777 397.104 448.707C396.756 449.631 396.581 450.668 396.581 451.818C396.581 452.983 396.759 454.041 397.114 454.993C397.476 455.937 398.009 456.69 398.712 457.251C399.422 457.805 400.303 458.082 401.354 458.082ZM420.328 460.341C418.751 460.341 417.391 459.993 416.248 459.297C415.111 458.594 414.234 457.614 413.616 456.357C413.006 455.092 412.7 453.622 412.7 451.946C412.7 450.27 413.006 448.793 413.616 447.514C414.234 446.229 415.094 445.227 416.194 444.51C417.302 443.786 418.595 443.423 420.072 443.423C420.925 443.423 421.766 443.565 422.597 443.849C423.428 444.134 424.184 444.595 424.866 445.234C425.548 445.866 426.091 446.705 426.496 447.749C426.901 448.793 427.104 450.078 427.104 451.605V452.67H414.49V450.497H424.547C424.547 449.574 424.362 448.75 423.993 448.026C423.631 447.301 423.112 446.729 422.437 446.31C421.77 445.891 420.981 445.682 420.072 445.682C419.071 445.682 418.204 445.93 417.473 446.428C416.748 446.918 416.191 447.557 415.8 448.345C415.41 449.134 415.214 449.979 415.214 450.881V452.33C415.214 453.565 415.427 454.613 415.854 455.472C416.287 456.325 416.887 456.974 417.654 457.422C418.421 457.862 419.312 458.082 420.328 458.082C420.988 458.082 421.585 457.99 422.118 457.805C422.657 457.614 423.123 457.33 423.513 456.953C423.904 456.57 424.206 456.094 424.419 455.526L426.848 456.207C426.592 457.031 426.162 457.756 425.559 458.381C424.955 458.999 424.209 459.482 423.322 459.83C422.434 460.17 421.436 460.341 420.328 460.341ZM437.789 460.341C436.212 460.341 434.852 459.993 433.709 459.297C432.572 458.594 431.695 457.614 431.077 456.357C430.466 455.092 430.161 453.622 430.161 451.946C430.161 450.27 430.466 448.793 431.077 447.514C431.695 446.229 432.555 445.227 433.655 444.51C434.763 443.786 436.056 443.423 437.533 443.423C438.385 443.423 439.227 443.565 440.058 443.849C440.889 444.134 441.645 444.595 442.327 445.234C443.009 445.866 443.552 446.705 443.957 447.749C444.362 448.793 444.564 450.078 444.564 451.605V452.67H431.951V450.497H442.008C442.008 449.574 441.823 448.75 441.454 448.026C441.091 447.301 440.573 446.729 439.898 446.31C439.231 445.891 438.442 445.682 437.533 445.682C436.532 445.682 435.665 445.93 434.934 446.428C434.209 446.918 433.652 447.557 433.261 448.345C432.871 449.134 432.675 449.979 432.675 450.881V452.33C432.675 453.565 432.888 454.613 433.314 455.472C433.748 456.325 434.348 456.974 435.115 457.422C435.882 457.862 436.773 458.082 437.789 458.082C438.449 458.082 439.046 457.99 439.579 457.805C440.118 457.614 440.584 457.33 440.974 456.953C441.365 456.57 441.667 456.094 441.88 455.526L444.309 456.207C444.053 457.031 443.623 457.756 443.02 458.381C442.416 458.999 441.67 459.482 440.782 459.83C439.895 460.17 438.897 460.341 437.789 460.341ZM450.903 438.182V460H448.389V438.182H450.903ZM458.022 450.156V460H455.508V438.182H458.022V446.193H458.235C458.619 445.348 459.194 444.677 459.961 444.18C460.735 443.675 461.765 443.423 463.051 443.423C464.166 443.423 465.142 443.647 465.98 444.094C466.819 444.535 467.468 445.213 467.93 446.129C468.399 447.038 468.633 448.196 468.633 449.602V460H466.119V449.773C466.119 448.473 465.782 447.468 465.107 446.758C464.439 446.04 463.512 445.682 462.326 445.682C461.502 445.682 460.764 445.856 460.11 446.204C459.464 446.552 458.953 447.06 458.576 447.727C458.207 448.395 458.022 449.205 458.022 450.156ZM479.881 460.341C478.403 460.341 477.107 459.989 475.992 459.286C474.884 458.583 474.018 457.599 473.393 456.335C472.775 455.071 472.466 453.594 472.466 451.903C472.466 450.199 472.775 448.711 473.393 447.44C474.018 446.168 474.884 445.181 475.992 444.478C477.107 443.775 478.403 443.423 479.881 443.423C481.358 443.423 482.65 443.775 483.758 444.478C484.873 445.181 485.74 446.168 486.358 447.44C486.983 448.711 487.295 450.199 487.295 451.903C487.295 453.594 486.983 455.071 486.358 456.335C485.74 457.599 484.873 458.583 483.758 459.286C482.65 459.989 481.358 460.341 479.881 460.341ZM479.881 458.082C481.003 458.082 481.926 457.795 482.65 457.219C483.375 456.644 483.911 455.888 484.259 454.95C484.607 454.013 484.781 452.997 484.781 451.903C484.781 450.81 484.607 449.79 484.259 448.846C483.911 447.901 483.375 447.138 482.65 446.555C481.926 445.973 481.003 445.682 479.881 445.682C478.758 445.682 477.835 445.973 477.111 446.555C476.386 447.138 475.85 447.901 475.502 448.846C475.154 449.79 474.98 450.81 474.98 451.903C474.98 452.997 475.154 454.013 475.502 454.95C475.85 455.888 476.386 456.644 477.111 457.219C477.835 457.795 478.758 458.082 479.881 458.082ZM501.446 453.31V443.636H503.96V460H501.446V457.23H501.275C500.892 458.061 500.295 458.768 499.485 459.35C498.676 459.925 497.653 460.213 496.417 460.213C495.395 460.213 494.485 459.989 493.69 459.542C492.895 459.087 492.27 458.406 491.815 457.496C491.36 456.58 491.133 455.426 491.133 454.034V443.636H493.647V453.864C493.647 455.057 493.981 456.009 494.649 456.719C495.324 457.429 496.183 457.784 497.227 457.784C497.852 457.784 498.488 457.624 499.134 457.305C499.787 456.985 500.334 456.495 500.775 455.835C501.222 455.174 501.446 454.332 501.446 453.31ZM514.744 460.341C513.38 460.341 512.176 459.996 511.132 459.308C510.088 458.612 509.271 457.631 508.682 456.367C508.093 455.096 507.798 453.594 507.798 451.861C507.798 450.142 508.093 448.651 508.682 447.386C509.271 446.122 510.092 445.146 511.143 444.457C512.194 443.768 513.409 443.423 514.786 443.423C515.852 443.423 516.693 443.601 517.311 443.956C517.936 444.304 518.412 444.702 518.739 445.149C519.073 445.589 519.332 445.952 519.517 446.236H519.73V438.182H522.244V460H519.815V457.486H519.517C519.332 457.784 519.069 458.161 518.728 458.615C518.387 459.062 517.901 459.464 517.269 459.819C516.637 460.167 515.795 460.341 514.744 460.341ZM515.085 458.082C516.093 458.082 516.945 457.82 517.642 457.294C518.338 456.761 518.867 456.026 519.229 455.089C519.591 454.144 519.772 453.054 519.772 451.818C519.772 450.597 519.595 449.528 519.24 448.612C518.884 447.688 518.359 446.971 517.663 446.46C516.967 445.941 516.107 445.682 515.085 445.682C514.019 445.682 513.132 445.955 512.421 446.502C511.718 447.042 511.189 447.777 510.834 448.707C510.486 449.631 510.312 450.668 510.312 451.818C510.312 452.983 510.49 454.041 510.845 454.993C511.207 455.937 511.74 456.69 512.443 457.251C513.153 457.805 514.034 458.082 515.085 458.082ZM534.058 460.341C532.482 460.341 531.122 459.993 529.978 459.297C528.842 458.594 527.965 457.614 527.347 456.357C526.736 455.092 526.431 453.622 526.431 451.946C526.431 450.27 526.736 448.793 527.347 447.514C527.965 446.229 528.824 445.227 529.925 444.51C531.033 443.786 532.325 443.423 533.803 443.423C534.655 443.423 535.497 443.565 536.328 443.849C537.159 444.134 537.915 444.595 538.597 445.234C539.279 445.866 539.822 446.705 540.227 447.749C540.632 448.793 540.834 450.078 540.834 451.605V452.67H528.22V450.497H538.277C538.277 449.574 538.093 448.75 537.723 448.026C537.361 447.301 536.843 446.729 536.168 446.31C535.5 445.891 534.712 445.682 533.803 445.682C532.801 445.682 531.935 445.93 531.203 446.428C530.479 446.918 529.921 447.557 529.531 448.345C529.14 449.134 528.945 449.979 528.945 450.881V452.33C528.945 453.565 529.158 454.613 529.584 455.472C530.017 456.325 530.617 456.974 531.384 457.422C532.151 457.862 533.043 458.082 534.058 458.082C534.719 458.082 535.316 457.99 535.848 457.805C536.388 457.614 536.853 457.33 537.244 456.953C537.634 456.57 537.936 456.094 538.149 455.526L540.578 456.207C540.323 457.031 539.893 457.756 539.289 458.381C538.686 458.999 537.94 459.482 537.052 459.83C536.164 460.17 535.166 460.341 534.058 460.341ZM544.659 460V443.636H547.088V446.108H547.258C547.556 445.298 548.096 444.641 548.877 444.137C549.659 443.633 550.539 443.381 551.519 443.381C551.704 443.381 551.935 443.384 552.212 443.391C552.489 443.398 552.698 443.409 552.84 443.423V445.98C552.755 445.959 552.56 445.927 552.254 445.884C551.956 445.835 551.64 445.81 551.306 445.81C550.511 445.81 549.801 445.977 549.176 446.31C548.558 446.637 548.068 447.092 547.705 447.674C547.35 448.249 547.173 448.906 547.173 449.645V460H544.659ZM567.412 447.301L565.153 447.94C565.011 447.564 564.801 447.198 564.525 446.843C564.255 446.481 563.885 446.183 563.417 445.948C562.948 445.714 562.348 445.597 561.616 445.597C560.615 445.597 559.78 445.827 559.113 446.289C558.452 446.744 558.122 447.322 558.122 448.026C558.122 448.651 558.349 449.144 558.804 449.506C559.258 449.869 559.968 450.17 560.934 450.412L563.363 451.009C564.826 451.364 565.917 451.907 566.634 452.638C567.351 453.363 567.71 454.297 567.71 455.44C567.71 456.378 567.44 457.216 566.9 457.955C566.368 458.693 565.622 459.276 564.663 459.702C563.704 460.128 562.589 460.341 561.318 460.341C559.649 460.341 558.267 459.979 557.174 459.254C556.08 458.53 555.387 457.472 555.096 456.08L557.483 455.483C557.71 456.364 558.14 457.024 558.772 457.464C559.411 457.905 560.245 458.125 561.275 458.125C562.447 458.125 563.377 457.876 564.066 457.379C564.762 456.875 565.11 456.271 565.11 455.568C565.11 455 564.912 454.524 564.514 454.141C564.116 453.75 563.505 453.459 562.681 453.267L559.954 452.628C558.456 452.273 557.355 451.722 556.652 450.977C555.956 450.224 555.608 449.283 555.608 448.153C555.608 447.23 555.867 446.413 556.385 445.703C556.911 444.993 557.625 444.435 558.527 444.031C559.436 443.626 560.466 443.423 561.616 443.423C563.235 443.423 564.507 443.778 565.43 444.489C566.36 445.199 567.021 446.136 567.412 447.301Z"
      fill="white" />
    <rect x="251" y="779" width="405" height="70" rx="27" fill="#0092D3" />
    <path
      d="M429.438 825V803.182H437.066C438.586 803.182 439.839 803.445 440.826 803.97C441.814 804.489 442.549 805.188 443.032 806.069C443.515 806.942 443.756 807.912 443.756 808.977C443.756 809.915 443.589 810.689 443.255 811.3C442.929 811.911 442.495 812.393 441.956 812.749C441.423 813.104 440.844 813.366 440.219 813.537V813.75C440.887 813.793 441.558 814.027 442.233 814.453C442.907 814.879 443.472 815.49 443.927 816.286C444.381 817.081 444.608 818.054 444.608 819.205C444.608 820.298 444.36 821.282 443.863 822.156C443.366 823.029 442.581 823.722 441.508 824.233C440.436 824.744 439.04 825 437.321 825H429.438ZM432.08 822.656H437.321C439.047 822.656 440.272 822.322 440.997 821.655C441.728 820.98 442.094 820.163 442.094 819.205C442.094 818.466 441.906 817.784 441.53 817.159C441.153 816.527 440.617 816.023 439.921 815.646C439.225 815.263 438.401 815.071 437.449 815.071H432.08V822.656ZM432.08 812.77H436.981C437.776 812.77 438.493 812.614 439.133 812.301C439.779 811.989 440.29 811.548 440.667 810.98C441.05 810.412 441.242 809.744 441.242 808.977C441.242 808.018 440.908 807.205 440.241 806.538C439.573 805.863 438.515 805.526 437.066 805.526H432.08V812.77ZM450.441 825.17C449.916 825.17 449.465 824.982 449.088 824.606C448.712 824.229 448.524 823.778 448.524 823.253C448.524 822.727 448.712 822.276 449.088 821.9C449.465 821.523 449.916 821.335 450.441 821.335C450.967 821.335 451.418 821.523 451.794 821.9C452.171 822.276 452.359 822.727 452.359 823.253C452.359 823.601 452.27 823.92 452.092 824.212C451.922 824.503 451.691 824.737 451.4 824.915C451.116 825.085 450.796 825.17 450.441 825.17ZM458.106 803.182L464.584 821.548H464.839L471.316 803.182H474.086L466.075 825H463.348L455.336 803.182H458.106ZM476.076 825.17C475.55 825.17 475.099 824.982 474.723 824.606C474.347 824.229 474.158 823.778 474.158 823.253C474.158 822.727 474.347 822.276 474.723 821.9C475.099 821.523 475.55 821.335 476.076 821.335C476.601 821.335 477.052 821.523 477.429 821.9C477.805 822.276 477.994 822.727 477.994 823.253C477.994 823.601 477.905 823.92 477.727 824.212C477.557 824.503 477.326 824.737 477.035 824.915C476.751 825.085 476.431 825.17 476.076 825.17Z"
      fill="white" />
    <rect x="946" y="857" width="405" height="70" rx="27" fill="#0092D3" />
    <path
      d="M1124.44 903V881.182H1132.07C1133.59 881.182 1134.84 881.445 1135.83 881.97C1136.81 882.489 1137.55 883.188 1138.03 884.069C1138.51 884.942 1138.76 885.912 1138.76 886.977C1138.76 887.915 1138.59 888.689 1138.26 889.3C1137.93 889.911 1137.5 890.393 1136.96 890.749C1136.42 891.104 1135.84 891.366 1135.22 891.537V891.75C1135.89 891.793 1136.56 892.027 1137.23 892.453C1137.91 892.879 1138.47 893.49 1138.93 894.286C1139.38 895.081 1139.61 896.054 1139.61 897.205C1139.61 898.298 1139.36 899.282 1138.86 900.156C1138.37 901.029 1137.58 901.722 1136.51 902.233C1135.44 902.744 1134.04 903 1132.32 903H1124.44ZM1127.08 900.656H1132.32C1134.05 900.656 1135.27 900.322 1136 899.655C1136.73 898.98 1137.09 898.163 1137.09 897.205C1137.09 896.466 1136.91 895.784 1136.53 895.159C1136.15 894.527 1135.62 894.023 1134.92 893.646C1134.22 893.263 1133.4 893.071 1132.45 893.071H1127.08V900.656ZM1127.08 890.77H1131.98C1132.78 890.77 1133.49 890.614 1134.13 890.301C1134.78 889.989 1135.29 889.548 1135.67 888.98C1136.05 888.412 1136.24 887.744 1136.24 886.977C1136.24 886.018 1135.91 885.205 1135.24 884.538C1134.57 883.863 1133.51 883.526 1132.07 883.526H1127.08V890.77ZM1145.44 903.17C1144.92 903.17 1144.46 902.982 1144.09 902.606C1143.71 902.229 1143.52 901.778 1143.52 901.253C1143.52 900.727 1143.71 900.276 1144.09 899.9C1144.46 899.523 1144.92 899.335 1145.44 899.335C1145.97 899.335 1146.42 899.523 1146.79 899.9C1147.17 900.276 1147.36 900.727 1147.36 901.253C1147.36 901.601 1147.27 901.92 1147.09 902.212C1146.92 902.503 1146.69 902.737 1146.4 902.915C1146.12 903.085 1145.8 903.17 1145.44 903.17ZM1153.11 881.182L1159.58 899.548H1159.84L1166.32 881.182H1169.09L1161.08 903H1158.35L1150.34 881.182H1153.11ZM1171.08 903.17C1170.55 903.17 1170.1 902.982 1169.72 902.606C1169.35 902.229 1169.16 901.778 1169.16 901.253C1169.16 900.727 1169.35 900.276 1169.72 899.9C1170.1 899.523 1170.55 899.335 1171.08 899.335C1171.6 899.335 1172.05 899.523 1172.43 899.9C1172.81 900.276 1172.99 900.727 1172.99 901.253C1172.99 901.601 1172.9 901.92 1172.73 902.212C1172.56 902.503 1172.33 902.737 1172.03 902.915C1171.75 903.085 1171.43 903.17 1171.08 903.17Z"
      fill="white" />
    <path d="M337 779L354.321 749L319.68 749L337 779ZM334 484L334 752L340 752L340 484L334 484Z"
      fill="black" />
    <path d="M571 779L588.321 749L553.68 749L571 779ZM568 484L568 752L574 752L574 484L568 484Z"
      fill="black" />
    <rect x="241" y="589" width="191" height="58" rx="27" fill="#50B967" />
    <path
      d="M283.832 614.047C283.761 613.331 283.456 612.775 282.918 612.378C282.379 611.982 281.648 611.783 280.725 611.783C280.098 611.783 279.568 611.872 279.136 612.05C278.704 612.221 278.372 612.461 278.142 612.769C277.917 613.077 277.804 613.426 277.804 613.816C277.792 614.142 277.86 614.426 278.008 614.669C278.162 614.911 278.372 615.121 278.639 615.299C278.905 615.471 279.213 615.622 279.562 615.752C279.911 615.876 280.284 615.983 280.681 616.071L282.314 616.462C283.107 616.64 283.835 616.876 284.498 617.172C285.161 617.468 285.735 617.832 286.22 618.264C286.706 618.696 287.081 619.205 287.348 619.791C287.62 620.377 287.759 621.049 287.765 621.806C287.759 622.919 287.475 623.884 286.913 624.701C286.356 625.511 285.552 626.142 284.498 626.592C283.45 627.036 282.187 627.257 280.707 627.257C279.239 627.257 277.961 627.033 276.872 626.583C275.789 626.133 274.943 625.467 274.333 624.585C273.729 623.697 273.413 622.6 273.383 621.292H277.103C277.144 621.901 277.319 622.41 277.627 622.819C277.94 623.221 278.358 623.526 278.878 623.733C279.405 623.934 280 624.035 280.663 624.035C281.314 624.035 281.879 623.94 282.358 623.751C282.844 623.561 283.22 623.298 283.486 622.961C283.752 622.623 283.885 622.236 283.885 621.798C283.885 621.389 283.764 621.046 283.521 620.768C283.285 620.49 282.936 620.253 282.474 620.058C282.018 619.862 281.459 619.685 280.796 619.525L278.816 619.028C277.283 618.655 276.073 618.072 275.185 617.279C274.297 616.486 273.856 615.417 273.862 614.074C273.856 612.973 274.149 612.011 274.741 611.189C275.339 610.366 276.159 609.724 277.2 609.262C278.242 608.8 279.426 608.57 280.752 608.57C282.101 608.57 283.279 608.8 284.285 609.262C285.297 609.724 286.084 610.366 286.646 611.189C287.209 612.011 287.499 612.964 287.517 614.047H283.832ZM297.533 613.364V616.205H289.321V613.364H297.533ZM291.185 610.097H294.967V622.81C294.967 623.159 295.021 623.431 295.127 623.626C295.234 623.816 295.382 623.949 295.571 624.026C295.766 624.103 295.991 624.141 296.246 624.141C296.423 624.141 296.601 624.127 296.778 624.097C296.956 624.061 297.092 624.035 297.187 624.017L297.782 626.831C297.592 626.891 297.326 626.959 296.983 627.036C296.639 627.118 296.222 627.169 295.731 627.186C294.819 627.222 294.02 627.101 293.334 626.822C292.653 626.544 292.123 626.112 291.745 625.526C291.366 624.94 291.179 624.201 291.185 623.307V610.097ZM306.065 627.266C304.662 627.266 303.454 626.982 302.442 626.414C301.436 625.84 300.661 625.029 300.116 623.982C299.572 622.928 299.3 621.682 299.3 620.244C299.3 618.841 299.572 617.61 300.116 616.551C300.661 615.491 301.427 614.666 302.416 614.074C303.41 613.482 304.576 613.186 305.914 613.186C306.813 613.186 307.651 613.331 308.426 613.621C309.207 613.905 309.888 614.334 310.468 614.908C311.054 615.482 311.51 616.205 311.835 617.075C312.161 617.939 312.323 618.951 312.323 620.111V621.15H300.809V618.806H308.763C308.763 618.261 308.645 617.779 308.408 617.359C308.172 616.938 307.843 616.61 307.423 616.373C307.009 616.131 306.526 616.009 305.976 616.009C305.402 616.009 304.893 616.142 304.449 616.409C304.011 616.669 303.668 617.021 303.419 617.465C303.17 617.903 303.043 618.391 303.037 618.93V621.158C303.037 621.833 303.161 622.416 303.41 622.907C303.665 623.399 304.023 623.777 304.484 624.044C304.946 624.31 305.493 624.443 306.127 624.443C306.547 624.443 306.932 624.384 307.281 624.266C307.63 624.147 307.929 623.97 308.177 623.733C308.426 623.496 308.615 623.206 308.746 622.863L312.244 623.094C312.066 623.934 311.702 624.668 311.152 625.295C310.607 625.917 309.903 626.402 309.039 626.751C308.18 627.095 307.189 627.266 306.065 627.266ZM314.791 627V613.364H318.396V615.77H318.556C318.84 614.971 319.313 614.34 319.976 613.879C320.639 613.417 321.432 613.186 322.355 613.186C323.291 613.186 324.087 613.42 324.744 613.887C325.4 614.349 325.838 614.976 326.057 615.77H326.199C326.478 614.988 326.981 614.364 327.709 613.896C328.443 613.423 329.31 613.186 330.31 613.186C331.582 613.186 332.615 613.592 333.408 614.402C334.207 615.207 334.607 616.35 334.607 617.829V627H330.834V618.575C330.834 617.817 330.632 617.249 330.23 616.87C329.828 616.492 329.324 616.302 328.721 616.302C328.034 616.302 327.499 616.521 327.114 616.959C326.729 617.391 326.537 617.962 326.537 618.673V627H322.87V618.495C322.87 617.826 322.678 617.294 322.293 616.897C321.914 616.5 321.414 616.302 320.793 616.302C320.373 616.302 319.994 616.409 319.657 616.622C319.325 616.829 319.062 617.122 318.866 617.501C318.671 617.874 318.573 618.312 318.573 618.815V627H314.791ZM337.594 627V613.364H341.261V615.743H341.403C341.651 614.897 342.069 614.257 342.655 613.825C343.241 613.387 343.915 613.168 344.679 613.168C344.868 613.168 345.072 613.18 345.291 613.204C345.51 613.228 345.703 613.26 345.868 613.301V616.657C345.691 616.604 345.445 616.557 345.131 616.515C344.818 616.474 344.531 616.453 344.27 616.453C343.714 616.453 343.217 616.574 342.779 616.817C342.347 617.054 342.004 617.385 341.749 617.811C341.5 618.238 341.376 618.729 341.376 619.285V627H337.594ZM353.403 627.266C352.001 627.266 350.793 626.982 349.781 626.414C348.775 625.84 348 625.029 347.455 623.982C346.911 622.928 346.638 621.682 346.638 620.244C346.638 618.841 346.911 617.61 347.455 616.551C348 615.491 348.766 614.666 349.755 614.074C350.749 613.482 351.915 613.186 353.252 613.186C354.152 613.186 354.99 613.331 355.765 613.621C356.546 613.905 357.227 614.334 357.807 614.908C358.393 615.482 358.848 616.205 359.174 617.075C359.5 617.939 359.662 618.951 359.662 620.111V621.15H348.148V618.806H356.102C356.102 618.261 355.984 617.779 355.747 617.359C355.51 616.938 355.182 616.61 354.762 616.373C354.347 616.131 353.865 616.009 353.315 616.009C352.741 616.009 352.232 616.142 351.788 616.409C351.35 616.669 351.006 617.021 350.758 617.465C350.509 617.903 350.382 618.391 350.376 618.93V621.158C350.376 621.833 350.5 622.416 350.749 622.907C351.003 623.399 351.362 623.777 351.823 624.044C352.285 624.31 352.832 624.443 353.466 624.443C353.886 624.443 354.27 624.384 354.62 624.266C354.969 624.147 355.268 623.97 355.516 623.733C355.765 623.496 355.954 623.206 356.085 622.863L359.582 623.094C359.405 623.934 359.041 624.668 358.49 625.295C357.946 625.917 357.242 626.402 356.377 626.751C355.519 627.095 354.528 627.266 353.403 627.266ZM368.292 627.266C366.895 627.266 365.693 626.97 364.687 626.379C363.687 625.781 362.917 624.952 362.379 623.893C361.846 622.833 361.58 621.614 361.58 620.235C361.58 618.838 361.849 617.613 362.388 616.56C362.932 615.5 363.705 614.675 364.705 614.083C365.705 613.485 366.895 613.186 368.274 613.186C369.463 613.186 370.505 613.402 371.399 613.834C372.292 614.266 373 614.873 373.521 615.654C374.041 616.435 374.328 617.353 374.382 618.406H370.813C370.712 617.726 370.446 617.178 370.014 616.764C369.588 616.344 369.028 616.134 368.336 616.134C367.75 616.134 367.238 616.293 366.8 616.613C366.368 616.927 366.031 617.385 365.788 617.989C365.545 618.593 365.424 619.324 365.424 620.182C365.424 621.052 365.542 621.792 365.779 622.401C366.022 623.011 366.362 623.475 366.8 623.795C367.238 624.115 367.75 624.275 368.336 624.275C368.768 624.275 369.156 624.186 369.499 624.008C369.848 623.831 370.135 623.573 370.36 623.236C370.591 622.893 370.742 622.481 370.813 622.002H374.382C374.323 623.043 374.038 623.961 373.529 624.754C373.026 625.541 372.331 626.157 371.443 626.6C370.555 627.044 369.505 627.266 368.292 627.266ZM380.585 619.116V627H376.803V608.818H380.479V615.77H380.638C380.946 614.965 381.443 614.334 382.13 613.879C382.816 613.417 383.678 613.186 384.713 613.186C385.66 613.186 386.486 613.393 387.19 613.808C387.9 614.216 388.451 614.805 388.842 615.574C389.238 616.338 389.433 617.252 389.427 618.317V627H385.646V618.992C385.651 618.152 385.438 617.498 385.006 617.03C384.58 616.563 383.982 616.329 383.213 616.329C382.698 616.329 382.242 616.438 381.846 616.657C381.455 616.876 381.147 617.196 380.922 617.616C380.704 618.03 380.591 618.531 380.585 619.116ZM399.657 613.364V616.205H391.445V613.364H399.657ZM393.309 610.097H397.091V622.81C397.091 623.159 397.145 623.431 397.251 623.626C397.358 623.816 397.506 623.949 397.695 624.026C397.89 624.103 398.115 624.141 398.37 624.141C398.547 624.141 398.725 624.127 398.902 624.097C399.08 624.061 399.216 624.035 399.311 624.017L399.906 626.831C399.716 626.891 399.45 626.959 399.107 627.036C398.763 627.118 398.346 627.169 397.855 627.186C396.943 627.222 396.144 627.101 395.458 626.822C394.777 626.544 394.247 626.112 393.869 625.526C393.49 624.94 393.303 624.201 393.309 623.307V610.097Z"
      fill="white" />
    <rect x="475" y="589" width="191" height="58" rx="27" fill="#50B967" />
    <path
      d="M507.899 627L502.697 608.818H506.896L509.905 621.451H510.056L513.377 608.818H516.972L520.284 621.478H520.443L523.453 608.818H527.652L522.45 627H518.703L515.241 615.113H515.099L511.645 627H507.899ZM529.639 627V613.364H533.421V627H529.639ZM531.538 611.606C530.976 611.606 530.494 611.419 530.091 611.047C529.695 610.668 529.497 610.215 529.497 609.688C529.497 609.167 529.695 608.721 530.091 608.348C530.494 607.969 530.976 607.779 531.538 607.779C532.101 607.779 532.58 607.969 532.977 608.348C533.379 608.721 533.58 609.167 533.58 609.688C533.58 610.215 533.379 610.668 532.977 611.047C532.58 611.419 532.101 611.606 531.538 611.606ZM540.232 619.116V627H536.45V613.364H540.055V615.77H540.214C540.516 614.976 541.022 614.349 541.732 613.887C542.443 613.42 543.304 613.186 544.316 613.186C545.263 613.186 546.089 613.393 546.793 613.808C547.497 614.222 548.045 614.814 548.435 615.583C548.826 616.347 549.021 617.258 549.021 618.317V627H545.239V618.992C545.245 618.158 545.032 617.507 544.6 617.039C544.168 616.566 543.573 616.329 542.816 616.329C542.307 616.329 541.857 616.438 541.466 616.657C541.081 616.876 540.78 617.196 540.561 617.616C540.348 618.03 540.238 618.531 540.232 619.116ZM563.348 617.252L559.885 617.465C559.826 617.169 559.699 616.903 559.504 616.666C559.308 616.424 559.051 616.231 558.731 616.089C558.418 615.941 558.042 615.867 557.604 615.867C557.018 615.867 556.524 615.991 556.121 616.24C555.719 616.483 555.518 616.808 555.518 617.217C555.518 617.542 555.648 617.817 555.908 618.042C556.169 618.267 556.615 618.448 557.249 618.584L559.717 619.081C561.043 619.353 562.031 619.791 562.682 620.395C563.333 620.999 563.659 621.792 563.659 622.774C563.659 623.668 563.395 624.452 562.868 625.127C562.348 625.801 561.631 626.328 560.72 626.707C559.814 627.08 558.77 627.266 557.586 627.266C555.781 627.266 554.343 626.891 553.271 626.139C552.206 625.381 551.582 624.351 551.398 623.049L555.118 622.854C555.23 623.404 555.503 623.825 555.935 624.115C556.367 624.399 556.92 624.541 557.595 624.541C558.258 624.541 558.79 624.414 559.193 624.159C559.601 623.899 559.808 623.564 559.814 623.156C559.808 622.813 559.663 622.531 559.379 622.312C559.095 622.088 558.657 621.916 558.065 621.798L555.704 621.327C554.372 621.061 553.381 620.599 552.73 619.942C552.085 619.285 551.762 618.448 551.762 617.43C551.762 616.554 551.999 615.799 552.472 615.166C552.952 614.533 553.624 614.044 554.488 613.701C555.358 613.358 556.376 613.186 557.542 613.186C559.264 613.186 560.619 613.55 561.608 614.278C562.602 615.006 563.182 615.997 563.348 617.252ZM573.293 613.364V616.205H565.081V613.364H573.293ZM566.946 610.097H570.727V622.81C570.727 623.159 570.781 623.431 570.887 623.626C570.994 623.816 571.142 623.949 571.331 624.026C571.527 624.103 571.751 624.141 572.006 624.141C572.183 624.141 572.361 624.127 572.539 624.097C572.716 624.061 572.852 624.035 572.947 624.017L573.542 626.831C573.352 626.891 573.086 626.959 572.743 627.036C572.399 627.118 571.982 627.169 571.491 627.186C570.58 627.222 569.781 627.101 569.094 626.822C568.413 626.544 567.884 626.112 567.505 625.526C567.126 624.94 566.94 624.201 566.946 623.307V610.097ZM575.757 627V613.364H579.423V615.743H579.565C579.814 614.897 580.231 614.257 580.817 613.825C581.403 613.387 582.078 613.168 582.841 613.168C583.031 613.168 583.235 613.18 583.454 613.204C583.673 613.228 583.865 613.26 584.031 613.301V616.657C583.853 616.604 583.608 616.557 583.294 616.515C582.98 616.474 582.693 616.453 582.433 616.453C581.877 616.453 581.379 616.574 580.941 616.817C580.509 617.054 580.166 617.385 579.912 617.811C579.663 618.238 579.539 618.729 579.539 619.285V627H575.757ZM591.566 627.266C590.163 627.266 588.956 626.982 587.944 626.414C586.938 625.84 586.162 625.029 585.618 623.982C585.073 622.928 584.801 621.682 584.801 620.244C584.801 618.841 585.073 617.61 585.618 616.551C586.162 615.491 586.929 614.666 587.917 614.074C588.912 613.482 590.077 613.186 591.415 613.186C592.315 613.186 593.152 613.331 593.928 613.621C594.709 613.905 595.389 614.334 595.969 614.908C596.555 615.482 597.011 616.205 597.337 617.075C597.662 617.939 597.825 618.951 597.825 620.111V621.15H586.31V618.806H594.265C594.265 618.261 594.146 617.779 593.91 617.359C593.673 616.938 593.345 616.61 592.924 616.373C592.51 616.131 592.028 616.009 591.477 616.009C590.903 616.009 590.394 616.142 589.95 616.409C589.512 616.669 589.169 617.021 588.92 617.465C588.672 617.903 588.545 618.391 588.539 618.93V621.158C588.539 621.833 588.663 622.416 588.912 622.907C589.166 623.399 589.524 623.777 589.986 624.044C590.447 624.31 590.995 624.443 591.628 624.443C592.048 624.443 592.433 624.384 592.782 624.266C593.131 624.147 593.43 623.97 593.679 623.733C593.928 623.496 594.117 623.206 594.247 622.863L597.745 623.094C597.567 623.934 597.203 624.668 596.653 625.295C596.109 625.917 595.404 626.402 594.54 626.751C593.682 627.095 592.691 627.266 591.566 627.266ZM606.454 627.266C605.057 627.266 603.856 626.97 602.85 626.379C601.85 625.781 601.08 624.952 600.542 623.893C600.009 622.833 599.742 621.614 599.742 620.235C599.742 618.838 600.012 617.613 600.55 616.56C601.095 615.5 601.867 614.675 602.867 614.083C603.868 613.485 605.057 613.186 606.436 613.186C607.626 613.186 608.668 613.402 609.561 613.834C610.455 614.266 611.162 614.873 611.683 615.654C612.204 616.435 612.491 617.353 612.544 618.406H608.975C608.875 617.726 608.609 617.178 608.176 616.764C607.75 616.344 607.191 616.134 606.499 616.134C605.913 616.134 605.401 616.293 604.963 616.613C604.531 616.927 604.193 617.385 603.951 617.989C603.708 618.593 603.587 619.324 603.587 620.182C603.587 621.052 603.705 621.792 603.942 622.401C604.184 623.011 604.525 623.475 604.963 623.795C605.401 624.115 605.913 624.275 606.499 624.275C606.931 624.275 607.318 624.186 607.662 624.008C608.011 623.831 608.298 623.573 608.523 623.236C608.754 622.893 608.904 622.481 608.975 622.002H612.544C612.485 623.043 612.201 623.961 611.692 624.754C611.189 625.541 610.494 626.157 609.606 626.6C608.718 627.044 607.667 627.266 606.454 627.266ZM618.748 619.116V627H614.966V608.818H618.641V615.77H618.801C619.109 614.965 619.606 614.334 620.292 613.879C620.979 613.417 621.84 613.186 622.876 613.186C623.823 613.186 624.649 613.393 625.353 613.808C626.063 614.216 626.614 614.805 627.004 615.574C627.401 616.338 627.596 617.252 627.59 618.317V627H623.808V618.992C623.814 618.152 623.601 617.498 623.169 617.03C622.743 616.563 622.145 616.329 621.376 616.329C620.861 616.329 620.405 616.438 620.008 616.657C619.618 616.876 619.31 617.196 619.085 617.616C618.866 618.03 618.754 618.531 618.748 619.116ZM637.82 613.364V616.205H629.608V613.364H637.82ZM631.472 610.097H635.254V622.81C635.254 623.159 635.307 623.431 635.414 623.626C635.52 623.816 635.668 623.949 635.858 624.026C636.053 624.103 636.278 624.141 636.532 624.141C636.71 624.141 636.887 624.127 637.065 624.097C637.242 624.061 637.379 624.035 637.473 624.017L638.068 626.831C637.879 626.891 637.612 626.959 637.269 627.036C636.926 627.118 636.509 627.169 636.017 627.186C635.106 627.222 634.307 627.101 633.62 626.822C632.94 626.544 632.41 626.112 632.031 625.526C631.652 624.94 631.466 624.201 631.472 623.307V610.097Z"
      fill="white" />
    <rect x="946" y="309" width="405" height="70" rx="27" fill="#0092D3" />
    <path
      d="M1036.34 355H1033.57L1041.59 333.182H1044.31L1052.32 355H1049.55L1043.03 336.634H1042.86L1036.34 355ZM1037.37 346.477H1048.53V348.821H1037.37V346.477ZM1060.2 355.384C1059.16 355.384 1058.22 355.188 1057.37 354.798C1056.53 354.4 1055.86 353.828 1055.36 353.082C1054.86 352.33 1054.61 351.42 1054.61 350.355C1054.61 349.418 1054.8 348.658 1055.17 348.075C1055.54 347.486 1056.03 347.024 1056.65 346.69C1057.27 346.357 1057.95 346.108 1058.69 345.945C1059.45 345.774 1060.2 345.639 1060.96 345.54C1061.96 345.412 1062.76 345.316 1063.38 345.252C1064.01 345.181 1064.46 345.064 1064.75 344.901C1065.04 344.737 1065.18 344.453 1065.18 344.048V343.963C1065.18 342.912 1064.89 342.095 1064.32 341.513C1063.75 340.93 1062.89 340.639 1061.73 340.639C1060.53 340.639 1059.59 340.902 1058.91 341.428C1058.23 341.953 1057.75 342.514 1057.47 343.111L1055.08 342.259C1055.51 341.264 1056.08 340.49 1056.79 339.936C1057.5 339.375 1058.29 338.984 1059.13 338.764C1059.98 338.537 1060.82 338.423 1061.65 338.423C1062.17 338.423 1062.77 338.487 1063.46 338.615C1064.15 338.736 1064.81 338.988 1065.45 339.371C1066.09 339.755 1066.63 340.334 1067.06 341.108C1067.48 341.882 1067.7 342.919 1067.7 344.219V355H1065.18V352.784H1065.05C1064.88 353.139 1064.6 353.519 1064.2 353.924C1063.8 354.329 1063.28 354.673 1062.61 354.957C1061.95 355.241 1061.15 355.384 1060.2 355.384ZM1060.58 353.125C1061.57 353.125 1062.41 352.93 1063.09 352.539C1063.78 352.148 1064.3 351.644 1064.65 351.026C1065 350.408 1065.18 349.759 1065.18 349.077V346.776C1065.08 346.903 1064.84 347.021 1064.48 347.127C1064.12 347.227 1063.71 347.315 1063.24 347.393C1062.78 347.464 1062.33 347.528 1061.89 347.585C1061.46 347.635 1061.11 347.678 1060.84 347.713C1060.18 347.798 1059.57 347.937 1059 348.129C1058.44 348.313 1057.99 348.594 1057.64 348.97C1057.3 349.339 1057.13 349.844 1057.13 350.483C1057.13 351.357 1057.45 352.017 1058.1 352.464C1058.75 352.905 1059.58 353.125 1060.58 353.125ZM1074.8 345.156V355H1072.29V338.636H1074.71V341.193H1074.93C1075.31 340.362 1075.89 339.695 1076.67 339.19C1077.46 338.679 1078.46 338.423 1079.7 338.423C1080.81 338.423 1081.78 338.651 1082.61 339.105C1083.44 339.553 1084.09 340.234 1084.55 341.151C1085.01 342.06 1085.24 343.21 1085.24 344.602V355H1082.73V344.773C1082.73 343.487 1082.39 342.486 1081.72 341.768C1081.06 341.044 1080.14 340.682 1078.98 340.682C1078.17 340.682 1077.46 340.856 1076.82 341.204C1076.2 341.552 1075.71 342.06 1075.34 342.727C1074.98 343.395 1074.8 344.205 1074.8 345.156ZM1096.01 355.341C1094.65 355.341 1093.45 354.996 1092.4 354.308C1091.36 353.612 1090.54 352.631 1089.95 351.367C1089.36 350.096 1089.07 348.594 1089.07 346.861C1089.07 345.142 1089.36 343.651 1089.95 342.386C1090.54 341.122 1091.36 340.146 1092.41 339.457C1093.46 338.768 1094.68 338.423 1096.06 338.423C1097.12 338.423 1097.96 338.601 1098.58 338.956C1099.21 339.304 1099.68 339.702 1100.01 340.149C1100.34 340.589 1100.6 340.952 1100.79 341.236H1101V333.182H1103.51V355H1101.08V352.486H1100.79C1100.6 352.784 1100.34 353.161 1100 353.615C1099.66 354.062 1099.17 354.464 1098.54 354.819C1097.91 355.167 1097.06 355.341 1096.01 355.341ZM1096.35 353.082C1097.36 353.082 1098.22 352.82 1098.91 352.294C1099.61 351.761 1100.14 351.026 1100.5 350.089C1100.86 349.144 1101.04 348.054 1101.04 346.818C1101.04 345.597 1100.86 344.528 1100.51 343.612C1100.15 342.688 1099.63 341.971 1098.93 341.46C1098.24 340.941 1097.38 340.682 1096.35 340.682C1095.29 340.682 1094.4 340.955 1093.69 341.502C1092.99 342.042 1092.46 342.777 1092.1 343.707C1091.76 344.631 1091.58 345.668 1091.58 346.818C1091.58 347.983 1091.76 349.041 1092.11 349.993C1092.48 350.937 1093.01 351.69 1093.71 352.251C1094.42 352.805 1095.3 353.082 1096.35 353.082ZM1115.33 355.341C1113.75 355.341 1112.39 354.993 1111.25 354.297C1110.11 353.594 1109.23 352.614 1108.62 351.357C1108.01 350.092 1107.7 348.622 1107.7 346.946C1107.7 345.27 1108.01 343.793 1108.62 342.514C1109.23 341.229 1110.09 340.227 1111.19 339.51C1112.3 338.786 1113.59 338.423 1115.07 338.423C1115.92 338.423 1116.77 338.565 1117.6 338.849C1118.43 339.134 1119.18 339.595 1119.87 340.234C1120.55 340.866 1121.09 341.705 1121.5 342.749C1121.9 343.793 1122.1 345.078 1122.1 346.605V347.67H1109.49V345.497H1119.55C1119.55 344.574 1119.36 343.75 1118.99 343.026C1118.63 342.301 1118.11 341.729 1117.44 341.31C1116.77 340.891 1115.98 340.682 1115.07 340.682C1114.07 340.682 1113.2 340.93 1112.47 341.428C1111.75 341.918 1111.19 342.557 1110.8 343.345C1110.41 344.134 1110.21 344.979 1110.21 345.881V347.33C1110.21 348.565 1110.43 349.613 1110.85 350.472C1111.29 351.325 1111.89 351.974 1112.65 352.422C1113.42 352.862 1114.31 353.082 1115.33 353.082C1115.99 353.082 1116.59 352.99 1117.12 352.805C1117.66 352.614 1118.12 352.33 1118.51 351.953C1118.9 351.57 1119.21 351.094 1119.42 350.526L1121.85 351.207C1121.59 352.031 1121.16 352.756 1120.56 353.381C1119.96 353.999 1119.21 354.482 1118.32 354.83C1117.43 355.17 1116.44 355.341 1115.33 355.341ZM1132.79 355.341C1131.21 355.341 1129.85 354.993 1128.71 354.297C1127.57 353.594 1126.7 352.614 1126.08 351.357C1125.47 350.092 1125.16 348.622 1125.16 346.946C1125.16 345.27 1125.47 343.793 1126.08 342.514C1126.7 341.229 1127.55 340.227 1128.66 339.51C1129.76 338.786 1131.06 338.423 1132.53 338.423C1133.39 338.423 1134.23 338.565 1135.06 338.849C1135.89 339.134 1136.65 339.595 1137.33 340.234C1138.01 340.866 1138.55 341.705 1138.96 342.749C1139.36 343.793 1139.56 345.078 1139.56 346.605V347.67H1126.95V345.497H1137.01C1137.01 344.574 1136.82 343.75 1136.45 343.026C1136.09 342.301 1135.57 341.729 1134.9 341.31C1134.23 340.891 1133.44 340.682 1132.53 340.682C1131.53 340.682 1130.67 340.93 1129.93 341.428C1129.21 341.918 1128.65 342.557 1128.26 343.345C1127.87 344.134 1127.68 344.979 1127.68 345.881V347.33C1127.68 348.565 1127.89 349.613 1128.31 350.472C1128.75 351.325 1129.35 351.974 1130.11 352.422C1130.88 352.862 1131.77 353.082 1132.79 353.082C1133.45 353.082 1134.05 352.99 1134.58 352.805C1135.12 352.614 1135.58 352.33 1135.97 351.953C1136.36 351.57 1136.67 351.094 1136.88 350.526L1139.31 351.207C1139.05 352.031 1138.62 352.756 1138.02 353.381C1137.42 353.999 1136.67 354.482 1135.78 354.83C1134.89 355.17 1133.9 355.341 1132.79 355.341ZM1145.9 333.182V355H1143.39V333.182H1145.9ZM1153.02 345.156V355H1150.51V333.182H1153.02V341.193H1153.24C1153.62 340.348 1154.19 339.677 1154.96 339.18C1155.74 338.675 1156.77 338.423 1158.05 338.423C1159.17 338.423 1160.14 338.647 1160.98 339.094C1161.82 339.535 1162.47 340.213 1162.93 341.129C1163.4 342.038 1163.63 343.196 1163.63 344.602V355H1161.12V344.773C1161.12 343.473 1160.78 342.468 1160.11 341.758C1159.44 341.04 1158.51 340.682 1157.33 340.682C1156.5 340.682 1155.76 340.856 1155.11 341.204C1154.46 341.552 1153.95 342.06 1153.58 342.727C1153.21 343.395 1153.02 344.205 1153.02 345.156ZM1174.88 355.341C1173.4 355.341 1172.11 354.989 1170.99 354.286C1169.88 353.583 1169.02 352.599 1168.39 351.335C1167.77 350.071 1167.47 348.594 1167.47 346.903C1167.47 345.199 1167.77 343.711 1168.39 342.44C1169.02 341.168 1169.88 340.181 1170.99 339.478C1172.11 338.775 1173.4 338.423 1174.88 338.423C1176.36 338.423 1177.65 338.775 1178.76 339.478C1179.87 340.181 1180.74 341.168 1181.36 342.44C1181.98 343.711 1182.3 345.199 1182.3 346.903C1182.3 348.594 1181.98 350.071 1181.36 351.335C1180.74 352.599 1179.87 353.583 1178.76 354.286C1177.65 354.989 1176.36 355.341 1174.88 355.341ZM1174.88 353.082C1176 353.082 1176.93 352.795 1177.65 352.219C1178.37 351.644 1178.91 350.888 1179.26 349.95C1179.61 349.013 1179.78 347.997 1179.78 346.903C1179.78 345.81 1179.61 344.79 1179.26 343.846C1178.91 342.901 1178.37 342.138 1177.65 341.555C1176.93 340.973 1176 340.682 1174.88 340.682C1173.76 340.682 1172.84 340.973 1172.11 341.555C1171.39 342.138 1170.85 342.901 1170.5 343.846C1170.15 344.79 1169.98 345.81 1169.98 346.903C1169.98 347.997 1170.15 349.013 1170.5 349.95C1170.85 350.888 1171.39 351.644 1172.11 352.219C1172.84 352.795 1173.76 353.082 1174.88 353.082ZM1196.45 348.31V338.636H1198.96V355H1196.45V352.23H1196.28C1195.89 353.061 1195.3 353.768 1194.49 354.35C1193.68 354.925 1192.65 355.213 1191.42 355.213C1190.39 355.213 1189.49 354.989 1188.69 354.542C1187.89 354.087 1187.27 353.406 1186.81 352.496C1186.36 351.58 1186.13 350.426 1186.13 349.034V338.636H1188.65V348.864C1188.65 350.057 1188.98 351.009 1189.65 351.719C1190.32 352.429 1191.18 352.784 1192.23 352.784C1192.85 352.784 1193.49 352.624 1194.13 352.305C1194.79 351.985 1195.33 351.495 1195.77 350.835C1196.22 350.174 1196.45 349.332 1196.45 348.31ZM1209.74 355.341C1208.38 355.341 1207.18 354.996 1206.13 354.308C1205.09 353.612 1204.27 352.631 1203.68 351.367C1203.09 350.096 1202.8 348.594 1202.8 346.861C1202.8 345.142 1203.09 343.651 1203.68 342.386C1204.27 341.122 1205.09 340.146 1206.14 339.457C1207.19 338.768 1208.41 338.423 1209.79 338.423C1210.85 338.423 1211.69 338.601 1212.31 338.956C1212.94 339.304 1213.41 339.702 1213.74 340.149C1214.07 340.589 1214.33 340.952 1214.52 341.236H1214.73V333.182H1217.24V355H1214.81V352.486H1214.52C1214.33 352.784 1214.07 353.161 1213.73 353.615C1213.39 354.062 1212.9 354.464 1212.27 354.819C1211.64 355.167 1210.79 355.341 1209.74 355.341ZM1210.08 353.082C1211.09 353.082 1211.95 352.82 1212.64 352.294C1213.34 351.761 1213.87 351.026 1214.23 350.089C1214.59 349.144 1214.77 348.054 1214.77 346.818C1214.77 345.597 1214.59 344.528 1214.24 343.612C1213.88 342.688 1213.36 341.971 1212.66 341.46C1211.97 340.941 1211.11 340.682 1210.08 340.682C1209.02 340.682 1208.13 340.955 1207.42 341.502C1206.72 342.042 1206.19 342.777 1205.83 343.707C1205.49 344.631 1205.31 345.668 1205.31 346.818C1205.31 347.983 1205.49 349.041 1205.84 349.993C1206.21 350.937 1206.74 351.69 1207.44 352.251C1208.15 352.805 1209.03 353.082 1210.08 353.082ZM1229.06 355.341C1227.48 355.341 1226.12 354.993 1224.98 354.297C1223.84 353.594 1222.96 352.614 1222.35 351.357C1221.74 350.092 1221.43 348.622 1221.43 346.946C1221.43 345.27 1221.74 343.793 1222.35 342.514C1222.96 341.229 1223.82 340.227 1224.92 339.51C1226.03 338.786 1227.33 338.423 1228.8 338.423C1229.66 338.423 1230.5 338.565 1231.33 338.849C1232.16 339.134 1232.91 339.595 1233.6 340.234C1234.28 340.866 1234.82 341.705 1235.23 342.749C1235.63 343.793 1235.83 345.078 1235.83 346.605V347.67H1223.22V345.497H1233.28C1233.28 344.574 1233.09 343.75 1232.72 343.026C1232.36 342.301 1231.84 341.729 1231.17 341.31C1230.5 340.891 1229.71 340.682 1228.8 340.682C1227.8 340.682 1226.93 340.93 1226.2 341.428C1225.48 341.918 1224.92 342.557 1224.53 343.345C1224.14 344.134 1223.94 344.979 1223.94 345.881V347.33C1223.94 348.565 1224.16 349.613 1224.58 350.472C1225.02 351.325 1225.62 351.974 1226.38 352.422C1227.15 352.862 1228.04 353.082 1229.06 353.082C1229.72 353.082 1230.32 352.99 1230.85 352.805C1231.39 352.614 1231.85 352.33 1232.24 351.953C1232.63 351.57 1232.94 351.094 1233.15 350.526L1235.58 351.207C1235.32 352.031 1234.89 352.756 1234.29 353.381C1233.69 353.999 1232.94 354.482 1232.05 354.83C1231.16 355.17 1230.17 355.341 1229.06 355.341ZM1239.66 355V338.636H1242.09V341.108H1242.26C1242.56 340.298 1243.1 339.641 1243.88 339.137C1244.66 338.633 1245.54 338.381 1246.52 338.381C1246.7 338.381 1246.93 338.384 1247.21 338.391C1247.49 338.398 1247.7 338.409 1247.84 338.423V340.98C1247.76 340.959 1247.56 340.927 1247.25 340.884C1246.96 340.835 1246.64 340.81 1246.31 340.81C1245.51 340.81 1244.8 340.977 1244.18 341.31C1243.56 341.637 1243.07 342.092 1242.71 342.674C1242.35 343.249 1242.17 343.906 1242.17 344.645V355H1239.66ZM1262.41 342.301L1260.15 342.94C1260.01 342.564 1259.8 342.198 1259.52 341.843C1259.25 341.481 1258.89 341.183 1258.42 340.948C1257.95 340.714 1257.35 340.597 1256.62 340.597C1255.61 340.597 1254.78 340.827 1254.11 341.289C1253.45 341.744 1253.12 342.322 1253.12 343.026C1253.12 343.651 1253.35 344.144 1253.8 344.506C1254.26 344.869 1254.97 345.17 1255.93 345.412L1258.36 346.009C1259.83 346.364 1260.92 346.907 1261.63 347.638C1262.35 348.363 1262.71 349.297 1262.71 350.44C1262.71 351.378 1262.44 352.216 1261.9 352.955C1261.37 353.693 1260.62 354.276 1259.66 354.702C1258.7 355.128 1257.59 355.341 1256.32 355.341C1254.65 355.341 1253.27 354.979 1252.17 354.254C1251.08 353.53 1250.39 352.472 1250.1 351.08L1252.48 350.483C1252.71 351.364 1253.14 352.024 1253.77 352.464C1254.41 352.905 1255.25 353.125 1256.28 353.125C1257.45 353.125 1258.38 352.876 1259.07 352.379C1259.76 351.875 1260.11 351.271 1260.11 350.568C1260.11 350 1259.91 349.524 1259.51 349.141C1259.12 348.75 1258.51 348.459 1257.68 348.267L1254.95 347.628C1253.46 347.273 1252.35 346.722 1251.65 345.977C1250.96 345.224 1250.61 344.283 1250.61 343.153C1250.61 342.23 1250.87 341.413 1251.39 340.703C1251.91 339.993 1252.62 339.435 1253.53 339.031C1254.44 338.626 1255.47 338.423 1256.62 338.423C1258.24 338.423 1259.51 338.778 1260.43 339.489C1261.36 340.199 1262.02 341.136 1262.41 342.301Z"
      fill="white" />
    <rect x="946" y="583" width="405" height="70" rx="27" fill="#0092D3" />
    <path
      d="M1125.24 612.636C1125.11 611.557 1124.59 610.719 1123.68 610.122C1122.77 609.526 1121.66 609.227 1120.34 609.227C1119.37 609.227 1118.53 609.384 1117.8 609.696C1117.08 610.009 1116.52 610.438 1116.12 610.985C1115.72 611.532 1115.52 612.153 1115.52 612.849C1115.52 613.432 1115.66 613.933 1115.94 614.352C1116.22 614.763 1116.58 615.108 1117.02 615.385C1117.46 615.655 1117.93 615.879 1118.41 616.056C1118.89 616.227 1119.33 616.365 1119.74 616.472L1121.96 617.068C1122.52 617.217 1123.16 617.423 1123.85 617.686C1124.56 617.949 1125.23 618.308 1125.87 618.762C1126.51 619.21 1127.04 619.785 1127.46 620.488C1127.88 621.191 1128.09 622.054 1128.09 623.077C1128.09 624.256 1127.78 625.321 1127.17 626.273C1126.55 627.224 1125.66 627.981 1124.48 628.542C1123.31 629.103 1121.88 629.384 1120.21 629.384C1118.65 629.384 1117.29 629.131 1116.15 628.627C1115.01 628.123 1114.12 627.42 1113.46 626.518C1112.82 625.616 1112.45 624.568 1112.37 623.375H1115.09C1115.17 624.199 1115.44 624.881 1115.93 625.42C1116.42 625.953 1117.03 626.351 1117.78 626.614C1118.53 626.869 1119.34 626.997 1120.21 626.997C1121.22 626.997 1122.12 626.834 1122.93 626.507C1123.73 626.173 1124.36 625.712 1124.83 625.122C1125.3 624.526 1125.54 623.83 1125.54 623.034C1125.54 622.31 1125.33 621.72 1124.93 621.266C1124.52 620.811 1123.99 620.442 1123.33 620.158C1122.67 619.874 1121.96 619.625 1121.19 619.412L1118.5 618.645C1116.8 618.155 1115.45 617.455 1114.46 616.546C1113.46 615.637 1112.96 614.447 1112.96 612.977C1112.96 611.756 1113.29 610.69 1113.95 609.781C1114.62 608.865 1115.52 608.155 1116.64 607.651C1117.77 607.139 1119.03 606.884 1120.42 606.884C1121.83 606.884 1123.08 607.136 1124.17 607.64C1125.27 608.137 1126.13 608.819 1126.77 609.685C1127.42 610.552 1127.76 611.536 1127.79 612.636H1125.24ZM1131.24 609.526V607.182H1147.61V609.526H1140.75V629H1138.1V609.526H1131.24ZM1150.03 629H1147.26L1155.27 607.182H1158L1166.01 629H1163.24L1156.72 610.634H1156.55L1150.03 629ZM1151.05 620.477H1162.22V622.821H1151.05V620.477ZM1169.41 629V607.182H1172.05V618.006H1172.31L1182.11 607.182H1185.56L1176.4 617.026L1185.56 629H1182.36L1174.78 618.858L1172.05 621.926V629H1169.41Z"
      fill="white" />
    <path
      d="M1032 583L1049.32 553L1014.68 553L1032 583ZM1029 379L1029 556L1035 556L1035 379L1029 379Z"
      fill="black" />
    <path
      d="M1266 583L1283.32 553L1248.68 553L1266 583ZM1263 379L1263 556L1269 556L1269 379L1263 379Z"
      fill="black" />
    <rect x="936" y="426" width="191" height="58" rx="27" fill="#50B967" />
    <path
      d="M978.832 451.047C978.761 450.331 978.456 449.775 977.918 449.378C977.379 448.982 976.648 448.783 975.725 448.783C975.098 448.783 974.568 448.872 974.136 449.05C973.704 449.221 973.372 449.461 973.142 449.769C972.917 450.077 972.804 450.426 972.804 450.816C972.792 451.142 972.86 451.426 973.008 451.669C973.162 451.911 973.372 452.121 973.639 452.299C973.905 452.471 974.213 452.622 974.562 452.752C974.911 452.876 975.284 452.983 975.681 453.071L977.314 453.462C978.107 453.64 978.835 453.876 979.498 454.172C980.161 454.468 980.735 454.832 981.22 455.264C981.706 455.696 982.081 456.205 982.348 456.791C982.62 457.377 982.759 458.049 982.765 458.806C982.759 459.919 982.475 460.884 981.913 461.701C981.356 462.511 980.552 463.142 979.498 463.592C978.45 464.036 977.187 464.257 975.707 464.257C974.239 464.257 972.961 464.033 971.872 463.583C970.789 463.133 969.943 462.467 969.333 461.585C968.729 460.697 968.413 459.6 968.383 458.292H972.103C972.144 458.901 972.319 459.41 972.627 459.819C972.94 460.221 973.358 460.526 973.878 460.733C974.405 460.934 975 461.035 975.663 461.035C976.314 461.035 976.879 460.94 977.358 460.751C977.844 460.561 978.22 460.298 978.486 459.961C978.752 459.623 978.885 459.236 978.885 458.798C978.885 458.389 978.764 458.046 978.521 457.768C978.285 457.49 977.936 457.253 977.474 457.058C977.018 456.862 976.459 456.685 975.796 456.525L973.816 456.028C972.283 455.655 971.073 455.072 970.185 454.279C969.297 453.486 968.856 452.417 968.862 451.074C968.856 449.973 969.149 449.011 969.741 448.189C970.339 447.366 971.159 446.724 972.2 446.262C973.242 445.8 974.426 445.57 975.752 445.57C977.101 445.57 978.279 445.8 979.285 446.262C980.297 446.724 981.084 447.366 981.646 448.189C982.209 449.011 982.499 449.964 982.517 451.047H978.832ZM992.533 450.364V453.205H984.321V450.364H992.533ZM986.185 447.097H989.967V459.81C989.967 460.159 990.021 460.431 990.127 460.626C990.234 460.816 990.382 460.949 990.571 461.026C990.766 461.103 990.991 461.141 991.246 461.141C991.423 461.141 991.601 461.127 991.778 461.097C991.956 461.061 992.092 461.035 992.187 461.017L992.782 463.831C992.592 463.891 992.326 463.959 991.983 464.036C991.639 464.118 991.222 464.169 990.731 464.186C989.819 464.222 989.02 464.101 988.334 463.822C987.653 463.544 987.123 463.112 986.745 462.526C986.366 461.94 986.179 461.201 986.185 460.307V447.097ZM1001.06 464.266C999.662 464.266 998.454 463.982 997.442 463.414C996.436 462.84 995.661 462.029 995.116 460.982C994.572 459.928 994.3 458.682 994.3 457.244C994.3 455.841 994.572 454.61 995.116 453.551C995.661 452.491 996.427 451.666 997.416 451.074C998.41 450.482 999.576 450.186 1000.91 450.186C1001.81 450.186 1002.65 450.331 1003.43 450.621C1004.21 450.905 1004.89 451.334 1005.47 451.908C1006.05 452.482 1006.51 453.205 1006.84 454.075C1007.16 454.939 1007.32 455.951 1007.32 457.111V458.15H995.809V455.806H1003.76C1003.76 455.261 1003.65 454.779 1003.41 454.359C1003.17 453.938 1002.84 453.61 1002.42 453.373C1002.01 453.131 1001.53 453.009 1000.98 453.009C1000.4 453.009 999.893 453.142 999.449 453.409C999.011 453.669 998.668 454.021 998.419 454.465C998.17 454.903 998.043 455.391 998.037 455.93V458.158C998.037 458.833 998.161 459.416 998.41 459.907C998.665 460.399 999.023 460.777 999.484 461.044C999.946 461.31 1000.49 461.443 1001.13 461.443C1001.55 461.443 1001.93 461.384 1002.28 461.266C1002.63 461.147 1002.93 460.97 1003.18 460.733C1003.43 460.496 1003.62 460.206 1003.75 459.863L1007.24 460.094C1007.07 460.934 1006.7 461.668 1006.15 462.295C1005.61 462.917 1004.9 463.402 1004.04 463.751C1003.18 464.095 1002.19 464.266 1001.06 464.266ZM1009.79 464V450.364H1013.4V452.77H1013.56C1013.84 451.971 1014.31 451.34 1014.98 450.879C1015.64 450.417 1016.43 450.186 1017.36 450.186C1018.29 450.186 1019.09 450.42 1019.74 450.887C1020.4 451.349 1020.84 451.976 1021.06 452.77H1021.2C1021.48 451.988 1021.98 451.364 1022.71 450.896C1023.44 450.423 1024.31 450.186 1025.31 450.186C1026.58 450.186 1027.62 450.592 1028.41 451.402C1029.21 452.207 1029.61 453.35 1029.61 454.829V464H1025.83V455.575C1025.83 454.817 1025.63 454.249 1025.23 453.87C1024.83 453.492 1024.32 453.302 1023.72 453.302C1023.03 453.302 1022.5 453.521 1022.11 453.959C1021.73 454.391 1021.54 454.962 1021.54 455.673V464H1017.87V455.495C1017.87 454.826 1017.68 454.294 1017.29 453.897C1016.91 453.5 1016.41 453.302 1015.79 453.302C1015.37 453.302 1014.99 453.409 1014.66 453.622C1014.33 453.829 1014.06 454.122 1013.87 454.501C1013.67 454.874 1013.57 455.312 1013.57 455.815V464H1009.79ZM1032.59 464V450.364H1036.26V452.743H1036.4C1036.65 451.897 1037.07 451.257 1037.65 450.825C1038.24 450.387 1038.92 450.168 1039.68 450.168C1039.87 450.168 1040.07 450.18 1040.29 450.204C1040.51 450.228 1040.7 450.26 1040.87 450.301V453.657C1040.69 453.604 1040.45 453.557 1040.13 453.515C1039.82 453.474 1039.53 453.453 1039.27 453.453C1038.71 453.453 1038.22 453.574 1037.78 453.817C1037.35 454.054 1037 454.385 1036.75 454.811C1036.5 455.238 1036.38 455.729 1036.38 456.285V464H1032.59ZM1048.4 464.266C1047 464.266 1045.79 463.982 1044.78 463.414C1043.78 462.84 1043 462.029 1042.46 460.982C1041.91 459.928 1041.64 458.682 1041.64 457.244C1041.64 455.841 1041.91 454.61 1042.46 453.551C1043 452.491 1043.77 451.666 1044.75 451.074C1045.75 450.482 1046.91 450.186 1048.25 450.186C1049.15 450.186 1049.99 450.331 1050.76 450.621C1051.55 450.905 1052.23 451.334 1052.81 451.908C1053.39 452.482 1053.85 453.205 1054.17 454.075C1054.5 454.939 1054.66 455.951 1054.66 457.111V458.15H1043.15V455.806H1051.1C1051.1 455.261 1050.98 454.779 1050.75 454.359C1050.51 453.938 1050.18 453.61 1049.76 453.373C1049.35 453.131 1048.87 453.009 1048.31 453.009C1047.74 453.009 1047.23 453.142 1046.79 453.409C1046.35 453.669 1046.01 454.021 1045.76 454.465C1045.51 454.903 1045.38 455.391 1045.38 455.93V458.158C1045.38 458.833 1045.5 459.416 1045.75 459.907C1046 460.399 1046.36 460.777 1046.82 461.044C1047.28 461.31 1047.83 461.443 1048.47 461.443C1048.89 461.443 1049.27 461.384 1049.62 461.266C1049.97 461.147 1050.27 460.97 1050.52 460.733C1050.76 460.496 1050.95 460.206 1051.08 459.863L1054.58 460.094C1054.4 460.934 1054.04 461.668 1053.49 462.295C1052.95 462.917 1052.24 463.402 1051.38 463.751C1050.52 464.095 1049.53 464.266 1048.4 464.266ZM1063.29 464.266C1061.89 464.266 1060.69 463.97 1059.69 463.379C1058.69 462.781 1057.92 461.952 1057.38 460.893C1056.85 459.833 1056.58 458.614 1056.58 457.235C1056.58 455.838 1056.85 454.613 1057.39 453.56C1057.93 452.5 1058.7 451.675 1059.7 451.083C1060.71 450.485 1061.89 450.186 1063.27 450.186C1064.46 450.186 1065.51 450.402 1066.4 450.834C1067.29 451.266 1068 451.873 1068.52 452.654C1069.04 453.435 1069.33 454.353 1069.38 455.406H1065.81C1065.71 454.726 1065.45 454.178 1065.01 453.764C1064.59 453.344 1064.03 453.134 1063.34 453.134C1062.75 453.134 1062.24 453.293 1061.8 453.613C1061.37 453.927 1061.03 454.385 1060.79 454.989C1060.55 455.593 1060.42 456.324 1060.42 457.182C1060.42 458.052 1060.54 458.792 1060.78 459.401C1061.02 460.011 1061.36 460.475 1061.8 460.795C1062.24 461.115 1062.75 461.275 1063.34 461.275C1063.77 461.275 1064.16 461.186 1064.5 461.008C1064.85 460.831 1065.14 460.573 1065.36 460.236C1065.59 459.893 1065.74 459.481 1065.81 459.002H1069.38C1069.32 460.043 1069.04 460.961 1068.53 461.754C1068.03 462.541 1067.33 463.157 1066.44 463.6C1065.56 464.044 1064.5 464.266 1063.29 464.266ZM1075.59 456.116V464H1071.8V445.818H1075.48V452.77H1075.64C1075.95 451.965 1076.44 451.334 1077.13 450.879C1077.82 450.417 1078.68 450.186 1079.71 450.186C1080.66 450.186 1081.49 450.393 1082.19 450.808C1082.9 451.216 1083.45 451.805 1083.84 452.574C1084.24 453.338 1084.43 454.252 1084.43 455.317V464H1080.65V455.992C1080.65 455.152 1080.44 454.498 1080.01 454.03C1079.58 453.563 1078.98 453.329 1078.21 453.329C1077.7 453.329 1077.24 453.438 1076.85 453.657C1076.46 453.876 1076.15 454.196 1075.92 454.616C1075.7 455.03 1075.59 455.531 1075.59 456.116ZM1094.66 450.364V453.205H1086.44V450.364H1094.66ZM1088.31 447.097H1092.09V459.81C1092.09 460.159 1092.14 460.431 1092.25 460.626C1092.36 460.816 1092.51 460.949 1092.69 461.026C1092.89 461.103 1093.12 461.141 1093.37 461.141C1093.55 461.141 1093.72 461.127 1093.9 461.097C1094.08 461.061 1094.22 461.035 1094.31 461.017L1094.91 463.831C1094.72 463.891 1094.45 463.959 1094.11 464.036C1093.76 464.118 1093.35 464.169 1092.85 464.186C1091.94 464.222 1091.14 464.101 1090.46 463.822C1089.78 463.544 1089.25 463.112 1088.87 462.526C1088.49 461.94 1088.3 461.201 1088.31 460.307V447.097Z"
      fill="white" />
    <rect x="1171" y="426" width="191" height="58" rx="27" fill="#50B967" />
    <path
      d="M1203.9 464L1198.7 445.818H1202.9L1205.91 458.451H1206.06L1209.38 445.818H1212.97L1216.28 458.478H1216.44L1219.45 445.818H1223.65L1218.45 464H1214.7L1211.24 452.113H1211.1L1207.65 464H1203.9ZM1225.64 464V450.364H1229.42V464H1225.64ZM1227.54 448.606C1226.98 448.606 1226.49 448.419 1226.09 448.047C1225.69 447.668 1225.5 447.215 1225.5 446.688C1225.5 446.167 1225.69 445.721 1226.09 445.348C1226.49 444.969 1226.98 444.779 1227.54 444.779C1228.1 444.779 1228.58 444.969 1228.98 445.348C1229.38 445.721 1229.58 446.167 1229.58 446.688C1229.58 447.215 1229.38 447.668 1228.98 448.047C1228.58 448.419 1228.1 448.606 1227.54 448.606ZM1236.23 456.116V464H1232.45V450.364H1236.05V452.77H1236.21C1236.52 451.976 1237.02 451.349 1237.73 450.887C1238.44 450.42 1239.3 450.186 1240.32 450.186C1241.26 450.186 1242.09 450.393 1242.79 450.808C1243.5 451.222 1244.04 451.814 1244.44 452.583C1244.83 453.347 1245.02 454.258 1245.02 455.317V464H1241.24V455.992C1241.25 455.158 1241.03 454.507 1240.6 454.039C1240.17 453.566 1239.57 453.329 1238.82 453.329C1238.31 453.329 1237.86 453.438 1237.47 453.657C1237.08 453.876 1236.78 454.196 1236.56 454.616C1236.35 455.03 1236.24 455.531 1236.23 456.116ZM1259.35 454.252L1255.89 454.465C1255.83 454.169 1255.7 453.903 1255.5 453.666C1255.31 453.424 1255.05 453.231 1254.73 453.089C1254.42 452.941 1254.04 452.867 1253.6 452.867C1253.02 452.867 1252.52 452.991 1252.12 453.24C1251.72 453.483 1251.52 453.808 1251.52 454.217C1251.52 454.542 1251.65 454.817 1251.91 455.042C1252.17 455.267 1252.62 455.448 1253.25 455.584L1255.72 456.081C1257.04 456.353 1258.03 456.791 1258.68 457.395C1259.33 457.999 1259.66 458.792 1259.66 459.774C1259.66 460.668 1259.4 461.452 1258.87 462.127C1258.35 462.801 1257.63 463.328 1256.72 463.707C1255.81 464.08 1254.77 464.266 1253.59 464.266C1251.78 464.266 1250.34 463.891 1249.27 463.139C1248.21 462.381 1247.58 461.351 1247.4 460.049L1251.12 459.854C1251.23 460.404 1251.5 460.825 1251.93 461.115C1252.37 461.399 1252.92 461.541 1253.59 461.541C1254.26 461.541 1254.79 461.414 1255.19 461.159C1255.6 460.899 1255.81 460.564 1255.81 460.156C1255.81 459.813 1255.66 459.531 1255.38 459.312C1255.1 459.088 1254.66 458.916 1254.07 458.798L1251.7 458.327C1250.37 458.061 1249.38 457.599 1248.73 456.942C1248.08 456.285 1247.76 455.448 1247.76 454.43C1247.76 453.554 1248 452.799 1248.47 452.166C1248.95 451.533 1249.62 451.044 1250.49 450.701C1251.36 450.358 1252.38 450.186 1253.54 450.186C1255.26 450.186 1256.62 450.55 1257.61 451.278C1258.6 452.006 1259.18 452.997 1259.35 454.252ZM1269.29 450.364V453.205H1261.08V450.364H1269.29ZM1262.95 447.097H1266.73V459.81C1266.73 460.159 1266.78 460.431 1266.89 460.626C1266.99 460.816 1267.14 460.949 1267.33 461.026C1267.53 461.103 1267.75 461.141 1268.01 461.141C1268.18 461.141 1268.36 461.127 1268.54 461.097C1268.72 461.061 1268.85 461.035 1268.95 461.017L1269.54 463.831C1269.35 463.891 1269.09 463.959 1268.74 464.036C1268.4 464.118 1267.98 464.169 1267.49 464.186C1266.58 464.222 1265.78 464.101 1265.09 463.822C1264.41 463.544 1263.88 463.112 1263.5 462.526C1263.13 461.94 1262.94 461.201 1262.95 460.307V447.097ZM1271.76 464V450.364H1275.42V452.743H1275.57C1275.81 451.897 1276.23 451.257 1276.82 450.825C1277.4 450.387 1278.08 450.168 1278.84 450.168C1279.03 450.168 1279.23 450.18 1279.45 450.204C1279.67 450.228 1279.87 450.26 1280.03 450.301V453.657C1279.85 453.604 1279.61 453.557 1279.29 453.515C1278.98 453.474 1278.69 453.453 1278.43 453.453C1277.88 453.453 1277.38 453.574 1276.94 453.817C1276.51 454.054 1276.17 454.385 1275.91 454.811C1275.66 455.238 1275.54 455.729 1275.54 456.285V464H1271.76ZM1287.57 464.266C1286.16 464.266 1284.96 463.982 1283.94 463.414C1282.94 462.84 1282.16 462.029 1281.62 460.982C1281.07 459.928 1280.8 458.682 1280.8 457.244C1280.8 455.841 1281.07 454.61 1281.62 453.551C1282.16 452.491 1282.93 451.666 1283.92 451.074C1284.91 450.482 1286.08 450.186 1287.42 450.186C1288.31 450.186 1289.15 450.331 1289.93 450.621C1290.71 450.905 1291.39 451.334 1291.97 451.908C1292.56 452.482 1293.01 453.205 1293.34 454.075C1293.66 454.939 1293.82 455.951 1293.82 457.111V458.15H1282.31V455.806H1290.26C1290.26 455.261 1290.15 454.779 1289.91 454.359C1289.67 453.938 1289.34 453.61 1288.92 453.373C1288.51 453.131 1288.03 453.009 1287.48 453.009C1286.9 453.009 1286.39 453.142 1285.95 453.409C1285.51 453.669 1285.17 454.021 1284.92 454.465C1284.67 454.903 1284.54 455.391 1284.54 455.93V458.158C1284.54 458.833 1284.66 459.416 1284.91 459.907C1285.17 460.399 1285.52 460.777 1285.99 461.044C1286.45 461.31 1286.99 461.443 1287.63 461.443C1288.05 461.443 1288.43 461.384 1288.78 461.266C1289.13 461.147 1289.43 460.97 1289.68 460.733C1289.93 460.496 1290.12 460.206 1290.25 459.863L1293.74 460.094C1293.57 460.934 1293.2 461.668 1292.65 462.295C1292.11 462.917 1291.4 463.402 1290.54 463.751C1289.68 464.095 1288.69 464.266 1287.57 464.266ZM1302.45 464.266C1301.06 464.266 1299.86 463.97 1298.85 463.379C1297.85 462.781 1297.08 461.952 1296.54 460.893C1296.01 459.833 1295.74 458.614 1295.74 457.235C1295.74 455.838 1296.01 454.613 1296.55 453.56C1297.09 452.5 1297.87 451.675 1298.87 451.083C1299.87 450.485 1301.06 450.186 1302.44 450.186C1303.63 450.186 1304.67 450.402 1305.56 450.834C1306.46 451.266 1307.16 451.873 1307.68 452.654C1308.2 453.435 1308.49 454.353 1308.54 455.406H1304.98C1304.87 454.726 1304.61 454.178 1304.18 453.764C1303.75 453.344 1303.19 453.134 1302.5 453.134C1301.91 453.134 1301.4 453.293 1300.96 453.613C1300.53 453.927 1300.19 454.385 1299.95 454.989C1299.71 455.593 1299.59 456.324 1299.59 457.182C1299.59 458.052 1299.7 458.792 1299.94 459.401C1300.18 460.011 1300.52 460.475 1300.96 460.795C1301.4 461.115 1301.91 461.275 1302.5 461.275C1302.93 461.275 1303.32 461.186 1303.66 461.008C1304.01 460.831 1304.3 460.573 1304.52 460.236C1304.75 459.893 1304.9 459.481 1304.98 459.002H1308.54C1308.49 460.043 1308.2 460.961 1307.69 461.754C1307.19 462.541 1306.49 463.157 1305.61 463.6C1304.72 464.044 1303.67 464.266 1302.45 464.266ZM1314.75 456.116V464H1310.97V445.818H1314.64V452.77H1314.8C1315.11 451.965 1315.61 451.334 1316.29 450.879C1316.98 450.417 1317.84 450.186 1318.88 450.186C1319.82 450.186 1320.65 450.393 1321.35 450.808C1322.06 451.216 1322.61 451.805 1323 452.574C1323.4 453.338 1323.6 454.252 1323.59 455.317V464H1319.81V455.992C1319.81 455.152 1319.6 454.498 1319.17 454.03C1318.74 453.563 1318.14 453.329 1317.38 453.329C1316.86 453.329 1316.4 453.438 1316.01 453.657C1315.62 453.876 1315.31 454.196 1315.09 454.616C1314.87 455.03 1314.75 455.531 1314.75 456.116ZM1333.82 450.364V453.205H1325.61V450.364H1333.82ZM1327.47 447.097H1331.25V459.81C1331.25 460.159 1331.31 460.431 1331.41 460.626C1331.52 460.816 1331.67 460.949 1331.86 461.026C1332.05 461.103 1332.28 461.141 1332.53 461.141C1332.71 461.141 1332.89 461.127 1333.06 461.097C1333.24 461.061 1333.38 461.035 1333.47 461.017L1334.07 463.831C1333.88 463.891 1333.61 463.959 1333.27 464.036C1332.93 464.118 1332.51 464.169 1332.02 464.186C1331.11 464.222 1330.31 464.101 1329.62 463.822C1328.94 463.544 1328.41 463.112 1328.03 462.526C1327.65 461.94 1327.47 461.201 1327.47 460.307V447.097Z"
      fill="white" />
    <path
      d="M1032 857L1049.32 827L1014.68 827L1032 857ZM1029 653L1029 830L1035 830L1035 653L1029 653Z"
      fill="black" />
    <path
      d="M1266 857L1283.32 827L1248.68 827L1266 857ZM1263 653L1263 830L1269 830L1269 653L1263 653Z"
      fill="black" />
    <rect x="936" y="700" width="191" height="58" rx="27" fill="#E54E4E" />
    <path
      d="M978.832 725.047C978.761 724.331 978.456 723.775 977.918 723.378C977.379 722.982 976.648 722.783 975.725 722.783C975.098 722.783 974.568 722.872 974.136 723.05C973.704 723.221 973.372 723.461 973.142 723.769C972.917 724.077 972.804 724.426 972.804 724.816C972.792 725.142 972.86 725.426 973.008 725.669C973.162 725.911 973.372 726.121 973.639 726.299C973.905 726.471 974.213 726.622 974.562 726.752C974.911 726.876 975.284 726.983 975.681 727.071L977.314 727.462C978.107 727.64 978.835 727.876 979.498 728.172C980.161 728.468 980.735 728.832 981.22 729.264C981.706 729.696 982.081 730.205 982.348 730.791C982.62 731.377 982.759 732.049 982.765 732.806C982.759 733.919 982.475 734.884 981.913 735.701C981.356 736.511 980.552 737.142 979.498 737.592C978.45 738.036 977.187 738.257 975.707 738.257C974.239 738.257 972.961 738.033 971.872 737.583C970.789 737.133 969.943 736.467 969.333 735.585C968.729 734.697 968.413 733.6 968.383 732.292H972.103C972.144 732.901 972.319 733.41 972.627 733.819C972.94 734.221 973.358 734.526 973.878 734.733C974.405 734.934 975 735.035 975.663 735.035C976.314 735.035 976.879 734.94 977.358 734.751C977.844 734.561 978.22 734.298 978.486 733.961C978.752 733.623 978.885 733.236 978.885 732.798C978.885 732.389 978.764 732.046 978.521 731.768C978.285 731.49 977.936 731.253 977.474 731.058C977.018 730.862 976.459 730.685 975.796 730.525L973.816 730.028C972.283 729.655 971.073 729.072 970.185 728.279C969.297 727.486 968.856 726.417 968.862 725.074C968.856 723.973 969.149 723.011 969.741 722.189C970.339 721.366 971.159 720.724 972.2 720.262C973.242 719.8 974.426 719.57 975.752 719.57C977.101 719.57 978.279 719.8 979.285 720.262C980.297 720.724 981.084 721.366 981.646 722.189C982.209 723.011 982.499 723.964 982.517 725.047H978.832ZM992.533 724.364V727.205H984.321V724.364H992.533ZM986.185 721.097H989.967V733.81C989.967 734.159 990.021 734.431 990.127 734.626C990.234 734.816 990.382 734.949 990.571 735.026C990.766 735.103 990.991 735.141 991.246 735.141C991.423 735.141 991.601 735.127 991.778 735.097C991.956 735.061 992.092 735.035 992.187 735.017L992.782 737.831C992.592 737.891 992.326 737.959 991.983 738.036C991.639 738.118 991.222 738.169 990.731 738.186C989.819 738.222 989.02 738.101 988.334 737.822C987.653 737.544 987.123 737.112 986.745 736.526C986.366 735.94 986.179 735.201 986.185 734.307V721.097ZM1001.06 738.266C999.662 738.266 998.454 737.982 997.442 737.414C996.436 736.84 995.661 736.029 995.116 734.982C994.572 733.928 994.3 732.682 994.3 731.244C994.3 729.841 994.572 728.61 995.116 727.551C995.661 726.491 996.427 725.666 997.416 725.074C998.41 724.482 999.576 724.186 1000.91 724.186C1001.81 724.186 1002.65 724.331 1003.43 724.621C1004.21 724.905 1004.89 725.334 1005.47 725.908C1006.05 726.482 1006.51 727.205 1006.84 728.075C1007.16 728.939 1007.32 729.951 1007.32 731.111V732.15H995.809V729.806H1003.76C1003.76 729.261 1003.65 728.779 1003.41 728.359C1003.17 727.938 1002.84 727.61 1002.42 727.373C1002.01 727.131 1001.53 727.009 1000.98 727.009C1000.4 727.009 999.893 727.142 999.449 727.409C999.011 727.669 998.668 728.021 998.419 728.465C998.17 728.903 998.043 729.391 998.037 729.93V732.158C998.037 732.833 998.161 733.416 998.41 733.907C998.665 734.399 999.023 734.777 999.484 735.044C999.946 735.31 1000.49 735.443 1001.13 735.443C1001.55 735.443 1001.93 735.384 1002.28 735.266C1002.63 735.147 1002.93 734.97 1003.18 734.733C1003.43 734.496 1003.62 734.206 1003.75 733.863L1007.24 734.094C1007.07 734.934 1006.7 735.668 1006.15 736.295C1005.61 736.917 1004.9 737.402 1004.04 737.751C1003.18 738.095 1002.19 738.266 1001.06 738.266ZM1009.79 738V724.364H1013.4V726.77H1013.56C1013.84 725.971 1014.31 725.34 1014.98 724.879C1015.64 724.417 1016.43 724.186 1017.36 724.186C1018.29 724.186 1019.09 724.42 1019.74 724.887C1020.4 725.349 1020.84 725.976 1021.06 726.77H1021.2C1021.48 725.988 1021.98 725.364 1022.71 724.896C1023.44 724.423 1024.31 724.186 1025.31 724.186C1026.58 724.186 1027.62 724.592 1028.41 725.402C1029.21 726.207 1029.61 727.35 1029.61 728.829V738H1025.83V729.575C1025.83 728.817 1025.63 728.249 1025.23 727.87C1024.83 727.492 1024.32 727.302 1023.72 727.302C1023.03 727.302 1022.5 727.521 1022.11 727.959C1021.73 728.391 1021.54 728.962 1021.54 729.673V738H1017.87V729.495C1017.87 728.826 1017.68 728.294 1017.29 727.897C1016.91 727.5 1016.41 727.302 1015.79 727.302C1015.37 727.302 1014.99 727.409 1014.66 727.622C1014.33 727.829 1014.06 728.122 1013.87 728.501C1013.67 728.874 1013.57 729.312 1013.57 729.815V738H1009.79ZM1032.59 738V724.364H1036.26V726.743H1036.4C1036.65 725.897 1037.07 725.257 1037.65 724.825C1038.24 724.387 1038.92 724.168 1039.68 724.168C1039.87 724.168 1040.07 724.18 1040.29 724.204C1040.51 724.228 1040.7 724.26 1040.87 724.301V727.657C1040.69 727.604 1040.45 727.557 1040.13 727.515C1039.82 727.474 1039.53 727.453 1039.27 727.453C1038.71 727.453 1038.22 727.574 1037.78 727.817C1037.35 728.054 1037 728.385 1036.75 728.811C1036.5 729.238 1036.38 729.729 1036.38 730.285V738H1032.59ZM1048.4 738.266C1047 738.266 1045.79 737.982 1044.78 737.414C1043.78 736.84 1043 736.029 1042.46 734.982C1041.91 733.928 1041.64 732.682 1041.64 731.244C1041.64 729.841 1041.91 728.61 1042.46 727.551C1043 726.491 1043.77 725.666 1044.75 725.074C1045.75 724.482 1046.91 724.186 1048.25 724.186C1049.15 724.186 1049.99 724.331 1050.76 724.621C1051.55 724.905 1052.23 725.334 1052.81 725.908C1053.39 726.482 1053.85 727.205 1054.17 728.075C1054.5 728.939 1054.66 729.951 1054.66 731.111V732.15H1043.15V729.806H1051.1C1051.1 729.261 1050.98 728.779 1050.75 728.359C1050.51 727.938 1050.18 727.61 1049.76 727.373C1049.35 727.131 1048.87 727.009 1048.31 727.009C1047.74 727.009 1047.23 727.142 1046.79 727.409C1046.35 727.669 1046.01 728.021 1045.76 728.465C1045.51 728.903 1045.38 729.391 1045.38 729.93V732.158C1045.38 732.833 1045.5 733.416 1045.75 733.907C1046 734.399 1046.36 734.777 1046.82 735.044C1047.28 735.31 1047.83 735.443 1048.47 735.443C1048.89 735.443 1049.27 735.384 1049.62 735.266C1049.97 735.147 1050.27 734.97 1050.52 734.733C1050.76 734.496 1050.95 734.206 1051.08 733.863L1054.58 734.094C1054.4 734.934 1054.04 735.668 1053.49 736.295C1052.95 736.917 1052.24 737.402 1051.38 737.751C1050.52 738.095 1049.53 738.266 1048.4 738.266ZM1063.29 738.266C1061.89 738.266 1060.69 737.97 1059.69 737.379C1058.69 736.781 1057.92 735.952 1057.38 734.893C1056.85 733.833 1056.58 732.614 1056.58 731.235C1056.58 729.838 1056.85 728.613 1057.39 727.56C1057.93 726.5 1058.7 725.675 1059.7 725.083C1060.71 724.485 1061.89 724.186 1063.27 724.186C1064.46 724.186 1065.51 724.402 1066.4 724.834C1067.29 725.266 1068 725.873 1068.52 726.654C1069.04 727.435 1069.33 728.353 1069.38 729.406H1065.81C1065.71 728.726 1065.45 728.178 1065.01 727.764C1064.59 727.344 1064.03 727.134 1063.34 727.134C1062.75 727.134 1062.24 727.293 1061.8 727.613C1061.37 727.927 1061.03 728.385 1060.79 728.989C1060.55 729.593 1060.42 730.324 1060.42 731.182C1060.42 732.052 1060.54 732.792 1060.78 733.401C1061.02 734.011 1061.36 734.475 1061.8 734.795C1062.24 735.115 1062.75 735.275 1063.34 735.275C1063.77 735.275 1064.16 735.186 1064.5 735.008C1064.85 734.831 1065.14 734.573 1065.36 734.236C1065.59 733.893 1065.74 733.481 1065.81 733.002H1069.38C1069.32 734.043 1069.04 734.961 1068.53 735.754C1068.03 736.541 1067.33 737.157 1066.44 737.6C1065.56 738.044 1064.5 738.266 1063.29 738.266ZM1075.59 730.116V738H1071.8V719.818H1075.48V726.77H1075.64C1075.95 725.965 1076.44 725.334 1077.13 724.879C1077.82 724.417 1078.68 724.186 1079.71 724.186C1080.66 724.186 1081.49 724.393 1082.19 724.808C1082.9 725.216 1083.45 725.805 1083.84 726.574C1084.24 727.338 1084.43 728.252 1084.43 729.317V738H1080.65V729.992C1080.65 729.152 1080.44 728.498 1080.01 728.03C1079.58 727.563 1078.98 727.329 1078.21 727.329C1077.7 727.329 1077.24 727.438 1076.85 727.657C1076.46 727.876 1076.15 728.196 1075.92 728.616C1075.7 729.03 1075.59 729.531 1075.59 730.116ZM1094.66 724.364V727.205H1086.44V724.364H1094.66ZM1088.31 721.097H1092.09V733.81C1092.09 734.159 1092.14 734.431 1092.25 734.626C1092.36 734.816 1092.51 734.949 1092.69 735.026C1092.89 735.103 1093.12 735.141 1093.37 735.141C1093.55 735.141 1093.72 735.127 1093.9 735.097C1094.08 735.061 1094.22 735.035 1094.31 735.017L1094.91 737.831C1094.72 737.891 1094.45 737.959 1094.11 738.036C1093.76 738.118 1093.35 738.169 1092.85 738.186C1091.94 738.222 1091.14 738.101 1090.46 737.822C1089.78 737.544 1089.25 737.112 1088.87 736.526C1088.49 735.94 1088.3 735.201 1088.31 734.307V721.097Z"
      fill="white" />
    <rect x="1171" y="700" width="191" height="58" rx="27" fill="#50B967" />
    <path
      d="M1203.9 738L1198.7 719.818H1202.9L1205.91 732.451H1206.06L1209.38 719.818H1212.97L1216.28 732.478H1216.44L1219.45 719.818H1223.65L1218.45 738H1214.7L1211.24 726.113H1211.1L1207.65 738H1203.9ZM1225.64 738V724.364H1229.42V738H1225.64ZM1227.54 722.606C1226.98 722.606 1226.49 722.419 1226.09 722.047C1225.69 721.668 1225.5 721.215 1225.5 720.688C1225.5 720.167 1225.69 719.721 1226.09 719.348C1226.49 718.969 1226.98 718.779 1227.54 718.779C1228.1 718.779 1228.58 718.969 1228.98 719.348C1229.38 719.721 1229.58 720.167 1229.58 720.688C1229.58 721.215 1229.38 721.668 1228.98 722.047C1228.58 722.419 1228.1 722.606 1227.54 722.606ZM1236.23 730.116V738H1232.45V724.364H1236.05V726.77H1236.21C1236.52 725.976 1237.02 725.349 1237.73 724.887C1238.44 724.42 1239.3 724.186 1240.32 724.186C1241.26 724.186 1242.09 724.393 1242.79 724.808C1243.5 725.222 1244.04 725.814 1244.44 726.583C1244.83 727.347 1245.02 728.258 1245.02 729.317V738H1241.24V729.992C1241.25 729.158 1241.03 728.507 1240.6 728.039C1240.17 727.566 1239.57 727.329 1238.82 727.329C1238.31 727.329 1237.86 727.438 1237.47 727.657C1237.08 727.876 1236.78 728.196 1236.56 728.616C1236.35 729.03 1236.24 729.531 1236.23 730.116ZM1259.35 728.252L1255.89 728.465C1255.83 728.169 1255.7 727.903 1255.5 727.666C1255.31 727.424 1255.05 727.231 1254.73 727.089C1254.42 726.941 1254.04 726.867 1253.6 726.867C1253.02 726.867 1252.52 726.991 1252.12 727.24C1251.72 727.483 1251.52 727.808 1251.52 728.217C1251.52 728.542 1251.65 728.817 1251.91 729.042C1252.17 729.267 1252.62 729.448 1253.25 729.584L1255.72 730.081C1257.04 730.353 1258.03 730.791 1258.68 731.395C1259.33 731.999 1259.66 732.792 1259.66 733.774C1259.66 734.668 1259.4 735.452 1258.87 736.127C1258.35 736.801 1257.63 737.328 1256.72 737.707C1255.81 738.08 1254.77 738.266 1253.59 738.266C1251.78 738.266 1250.34 737.891 1249.27 737.139C1248.21 736.381 1247.58 735.351 1247.4 734.049L1251.12 733.854C1251.23 734.404 1251.5 734.825 1251.93 735.115C1252.37 735.399 1252.92 735.541 1253.59 735.541C1254.26 735.541 1254.79 735.414 1255.19 735.159C1255.6 734.899 1255.81 734.564 1255.81 734.156C1255.81 733.813 1255.66 733.531 1255.38 733.312C1255.1 733.088 1254.66 732.916 1254.07 732.798L1251.7 732.327C1250.37 732.061 1249.38 731.599 1248.73 730.942C1248.08 730.285 1247.76 729.448 1247.76 728.43C1247.76 727.554 1248 726.799 1248.47 726.166C1248.95 725.533 1249.62 725.044 1250.49 724.701C1251.36 724.358 1252.38 724.186 1253.54 724.186C1255.26 724.186 1256.62 724.55 1257.61 725.278C1258.6 726.006 1259.18 726.997 1259.35 728.252ZM1269.29 724.364V727.205H1261.08V724.364H1269.29ZM1262.95 721.097H1266.73V733.81C1266.73 734.159 1266.78 734.431 1266.89 734.626C1266.99 734.816 1267.14 734.949 1267.33 735.026C1267.53 735.103 1267.75 735.141 1268.01 735.141C1268.18 735.141 1268.36 735.127 1268.54 735.097C1268.72 735.061 1268.85 735.035 1268.95 735.017L1269.54 737.831C1269.35 737.891 1269.09 737.959 1268.74 738.036C1268.4 738.118 1267.98 738.169 1267.49 738.186C1266.58 738.222 1265.78 738.101 1265.09 737.822C1264.41 737.544 1263.88 737.112 1263.5 736.526C1263.13 735.94 1262.94 735.201 1262.95 734.307V721.097ZM1271.76 738V724.364H1275.42V726.743H1275.57C1275.81 725.897 1276.23 725.257 1276.82 724.825C1277.4 724.387 1278.08 724.168 1278.84 724.168C1279.03 724.168 1279.23 724.18 1279.45 724.204C1279.67 724.228 1279.87 724.26 1280.03 724.301V727.657C1279.85 727.604 1279.61 727.557 1279.29 727.515C1278.98 727.474 1278.69 727.453 1278.43 727.453C1277.88 727.453 1277.38 727.574 1276.94 727.817C1276.51 728.054 1276.17 728.385 1275.91 728.811C1275.66 729.238 1275.54 729.729 1275.54 730.285V738H1271.76ZM1287.57 738.266C1286.16 738.266 1284.96 737.982 1283.94 737.414C1282.94 736.84 1282.16 736.029 1281.62 734.982C1281.07 733.928 1280.8 732.682 1280.8 731.244C1280.8 729.841 1281.07 728.61 1281.62 727.551C1282.16 726.491 1282.93 725.666 1283.92 725.074C1284.91 724.482 1286.08 724.186 1287.42 724.186C1288.31 724.186 1289.15 724.331 1289.93 724.621C1290.71 724.905 1291.39 725.334 1291.97 725.908C1292.56 726.482 1293.01 727.205 1293.34 728.075C1293.66 728.939 1293.82 729.951 1293.82 731.111V732.15H1282.31V729.806H1290.26C1290.26 729.261 1290.15 728.779 1289.91 728.359C1289.67 727.938 1289.34 727.61 1288.92 727.373C1288.51 727.131 1288.03 727.009 1287.48 727.009C1286.9 727.009 1286.39 727.142 1285.95 727.409C1285.51 727.669 1285.17 728.021 1284.92 728.465C1284.67 728.903 1284.54 729.391 1284.54 729.93V732.158C1284.54 732.833 1284.66 733.416 1284.91 733.907C1285.17 734.399 1285.52 734.777 1285.99 735.044C1286.45 735.31 1286.99 735.443 1287.63 735.443C1288.05 735.443 1288.43 735.384 1288.78 735.266C1289.13 735.147 1289.43 734.97 1289.68 734.733C1289.93 734.496 1290.12 734.206 1290.25 733.863L1293.74 734.094C1293.57 734.934 1293.2 735.668 1292.65 736.295C1292.11 736.917 1291.4 737.402 1290.54 737.751C1289.68 738.095 1288.69 738.266 1287.57 738.266ZM1302.45 738.266C1301.06 738.266 1299.86 737.97 1298.85 737.379C1297.85 736.781 1297.08 735.952 1296.54 734.893C1296.01 733.833 1295.74 732.614 1295.74 731.235C1295.74 729.838 1296.01 728.613 1296.55 727.56C1297.09 726.5 1297.87 725.675 1298.87 725.083C1299.87 724.485 1301.06 724.186 1302.44 724.186C1303.63 724.186 1304.67 724.402 1305.56 724.834C1306.46 725.266 1307.16 725.873 1307.68 726.654C1308.2 727.435 1308.49 728.353 1308.54 729.406H1304.98C1304.87 728.726 1304.61 728.178 1304.18 727.764C1303.75 727.344 1303.19 727.134 1302.5 727.134C1301.91 727.134 1301.4 727.293 1300.96 727.613C1300.53 727.927 1300.19 728.385 1299.95 728.989C1299.71 729.593 1299.59 730.324 1299.59 731.182C1299.59 732.052 1299.7 732.792 1299.94 733.401C1300.18 734.011 1300.52 734.475 1300.96 734.795C1301.4 735.115 1301.91 735.275 1302.5 735.275C1302.93 735.275 1303.32 735.186 1303.66 735.008C1304.01 734.831 1304.3 734.573 1304.52 734.236C1304.75 733.893 1304.9 733.481 1304.98 733.002H1308.54C1308.49 734.043 1308.2 734.961 1307.69 735.754C1307.19 736.541 1306.49 737.157 1305.61 737.6C1304.72 738.044 1303.67 738.266 1302.45 738.266ZM1314.75 730.116V738H1310.97V719.818H1314.64V726.77H1314.8C1315.11 725.965 1315.61 725.334 1316.29 724.879C1316.98 724.417 1317.84 724.186 1318.88 724.186C1319.82 724.186 1320.65 724.393 1321.35 724.808C1322.06 725.216 1322.61 725.805 1323 726.574C1323.4 727.338 1323.6 728.252 1323.59 729.317V738H1319.81V729.992C1319.81 729.152 1319.6 728.498 1319.17 728.03C1318.74 727.563 1318.14 727.329 1317.38 727.329C1316.86 727.329 1316.4 727.438 1316.01 727.657C1315.62 727.876 1315.31 728.196 1315.09 728.616C1314.87 729.03 1314.75 729.531 1314.75 730.116ZM1333.82 724.364V727.205H1325.61V724.364H1333.82ZM1327.47 721.097H1331.25V733.81C1331.25 734.159 1331.31 734.431 1331.41 734.626C1331.52 734.816 1331.67 734.949 1331.86 735.026C1332.05 735.103 1332.28 735.141 1332.53 735.141C1332.71 735.141 1332.89 735.127 1333.06 735.097C1333.24 735.061 1333.38 735.035 1333.47 735.017L1334.07 737.831C1333.88 737.891 1333.61 737.959 1333.27 738.036C1332.93 738.118 1332.51 738.169 1332.02 738.186C1331.11 738.222 1330.31 738.101 1329.62 737.822C1328.94 737.544 1328.41 737.112 1328.03 736.526C1327.65 735.94 1327.47 735.201 1327.47 734.307V721.097Z"
      fill="white" />
  </g>
  <defs>
    <filter id="filter0_d_515_781" x="0" y="0" width="1601" height="1226"
      filterUnits="userSpaceOnUse" color-interpolation-filters="sRGB">
      <feFlood flood-opacity="0" result="BackgroundImageFix" />
      <feColorMatrix in="SourceAlpha" type="matrix"
        values="0 0 0 0 0 0 0 0 0 0 0 0 0 0 0 0 0 0 127 0" result="hardAlpha" />
      <feMorphology radius="5" operator="dilate" in="SourceAlpha"
        result="effect1_dropShadow_515_781" />
      <feOffset dy="4" />
      <feGaussianBlur stdDeviation="50" />
      <feComposite in2="hardAlpha" operator="out" />
      <feColorMatrix type="matrix" values="0 0 0 0 0 0 0 0 0 0 0 0 0 0 0 0 0 0 0.25 0" />
      <feBlend mode="normal" in2="BackgroundImageFix" result="effect1_dropShadow_515_781" />
      <feBlend mode="normal" in="SourceGraphic" in2="effect1_dropShadow_515_781" result="shape" />
    </filter>
  </defs>
</svg>