<?xml version="1.0" encoding="UTF-8" standalone="no"?>
<!-- Created with Inkscape (http://www.inkscape.org/) -->

<svg
   xmlns:osb="http://www.openswatchbook.org/uri/2009/osb"
   xmlns:dc="http://purl.org/dc/elements/1.1/"
   xmlns:cc="http://creativecommons.org/ns#"
   xmlns:rdf="http://www.w3.org/1999/02/22-rdf-syntax-ns#"
   xmlns:svg="http://www.w3.org/2000/svg"
   xmlns="http://www.w3.org/2000/svg"
   xmlns:sodipodi="http://sodipodi.sourceforge.net/DTD/sodipodi-0.dtd"
   xmlns:inkscape="http://www.inkscape.org/namespaces/inkscape"
   width="374.03156mm"
   height="84.918396mm"
   viewBox="0 0 261.82209 59.442877"
   version="1.1"
   id="svg8"
   inkscape:version="0.92.5 (2060ec1f9f, 2020-04-08)"
   sodipodi:docname="round-e.svg">
  <defs
     id="defs2">
    <linearGradient
       id="linearGradient2285"
       osb:paint="solid">
      <stop
         style="stop-color:#000000;stop-opacity:1;"
         offset="0"
         id="stop2283" />
    </linearGradient>
  </defs>
  <sodipodi:namedview
     id="base"
     pagecolor="#fbfbfb"
     bordercolor="#666666"
     borderopacity="1.0"
     inkscape:pageopacity="1"
     inkscape:pageshadow="2"
     inkscape:zoom="0.49497475"
     inkscape:cx="505.30268"
     inkscape:cy="378.37032"
     inkscape:document-units="mm"
     inkscape:current-layer="layer1"
     showgrid="false"
     fit-margin-top="0"
     fit-margin-left="0"
     fit-margin-right="0"
     fit-margin-bottom="0"
     scale-x="0.7"
     inkscape:window-width="1920"
     inkscape:window-height="975"
     inkscape:window-x="0"
     inkscape:window-y="0"
     inkscape:window-maximized="1" />
  <metadata
     id="metadata5">
    <rdf:RDF>
      <cc:Work
         rdf:about="">
        <dc:format>image/svg+xml</dc:format>
        <dc:type
           rdf:resource="http://purl.org/dc/dcmitype/StillImage" />
        <dc:title />
      </cc:Work>
    </rdf:RDF>
  </metadata>
  <g
     inkscape:label="Layer 1"
     inkscape:groupmode="layer"
     id="layer1"
     transform="translate(83.853577,-156.25358)">
    <text
       xml:space="preserve"
       style="font-style:normal;font-weight:normal;font-size:10.58333302px;line-height:1.25;font-family:sans-serif;letter-spacing:0px;word-spacing:0px;fill:#000000;fill-opacity:1;stroke:none;stroke-width:0.26458332"
       x="152.34363"
       y="174.85783"
       id="text2353"><tspan
         sodipodi:role="line"
         id="tspan2351"
         x="152.34363"
         y="184.2216"
         style="stroke-width:0.26458332" /></text>
    <circle
       style="opacity:1;fill:#000000;fill-opacity:1;stroke:none;stroke-width:0.1;stroke-miterlimit:4;stroke-dasharray:none;stroke-opacity:1"
       id="path2355-8"
       cx="149.60411"
       cy="179.46822"
       r="0" />
    <path
       style="opacity:1;fill:#2f55d4;fill-opacity:0.98431373;stroke:none;stroke-width:2.47838664;stroke-miterlimit:4;stroke-dasharray:none;stroke-opacity:1"
       d="m 145.03501,167.43233 a 25.069271,25.069271 0 0 0 -13.68305,32.70652 25.069271,25.069271 0 0 0 32.70651,13.68305 25.069271,25.069271 0 0 0 13.80818,-14.01514 l -3.96219,-1.53618 a 20.835938,20.835938 0 0 1 -11.45221,11.63448 20.835938,20.835938 0 0 1 -27.18345,-11.37243 20.835938,20.835938 0 0 1 11.37243,-27.18346 20.835938,20.835938 0 0 1 25.69087,8.44584 l -21.0732,8.64172 5.55844,1.96691 17.22531,-7.06377 3.92587,-1.60992 a 25.069271,25.069271 0 0 0 -0.227,-0.61457 25.069271,25.069271 0 0 0 -32.70651,-13.68305 z"
       id="path3076"
       inkscape:connector-curvature="0" />
    <g
       aria-label="round"
       style="font-style:normal;font-weight:normal;font-size:68.37926483px;line-height:1.25;font-family:sans-serif;letter-spacing:0px;word-spacing:0px;fill:#2f50d4;fill-opacity:1;stroke:none;stroke-width:1.7094816"
       id="text830">
      <path
         d="m -76.947307,177.51942 q 0.957305,-1.98299 3.897599,-3.69246 3.008672,-1.70948 5.743828,-1.70948 2.188126,0 3.282188,0.27352 v 5.53869 q -0.820547,-0.20513 -2.324883,-0.20513 -9.778185,0 -9.778185,11.76117 v 18.59906 h -6.495996 v -23.11207 q 0,-8.20547 -1.230821,-12.37658 h 5.743829 q 1.162441,1.91461 1.162441,4.92328 z"
         style="font-style:normal;font-variant:normal;font-weight:bold;font-stretch:normal;font-size:68.37891388px;font-family:Laksaman;-inkscape-font-specification:'Laksaman, Bold';font-variant-ligatures:normal;font-variant-caps:normal;font-variant-numeric:normal;font-feature-settings:normal;text-align:start;writing-mode:lr-tb;text-anchor:start;fill:#2f50d4;fill-opacity:1;stroke-width:1.7094816"
         id="path820" />
      <path
         d="m -22.722901,190.37465 q 0,7.86358 -5.333555,13.19713 -5.333555,5.33356 -13.197131,5.33356 -7.863575,0 -13.19713,-5.33356 -5.333555,-5.33355 -5.333555,-13.19713 0,-7.79519 5.333555,-13.19713 5.333555,-5.40193 13.19713,-5.40193 7.863576,0 13.197131,5.40193 5.333555,5.40194 5.333555,13.19713 z m -18.530686,13.06038 q 5.333556,0 8.684123,-3.76084 3.418945,-3.76084 3.418945,-9.29954 0,-5.53869 -3.418945,-9.29953 -3.350567,-3.76084 -8.684123,-3.76084 -5.333555,0 -8.7525,3.76084 -3.418946,3.76084 -3.418946,9.29953 0,5.5387 3.418946,9.29954 3.418945,3.76084 8.7525,3.76084 z"
         style="font-style:normal;font-variant:normal;font-weight:bold;font-stretch:normal;font-size:68.37891388px;font-family:Laksaman;-inkscape-font-specification:'Laksaman, Bold';font-variant-ligatures:normal;font-variant-caps:normal;font-variant-numeric:normal;font-feature-settings:normal;text-align:start;writing-mode:lr-tb;text-anchor:start;fill:#2f50d4;fill-opacity:1;stroke-width:1.7094816"
         id="path822" />
      <path
         d="m 19.877122,207.67452 -6.29086,1.23082 q -1.025683,-2.46164 -1.84623,-5.94897 -6.2224815,6.08573 -12.23982595,6.08573 -14.49633005,0 -14.49633005,-16.82121 v -19.07772 h 6.4959971 v 18.4623 q 0,11.62442 8.82087991,11.62442 3.82921919,0 7.38492269,-2.87191 3.5557033,-2.9403 3.5557033,-6.56438 v -20.65043 h 6.495997 v 25.57371 q 0,3.62408 2.119746,8.95764 z"
         style="font-style:normal;font-variant:normal;font-weight:bold;font-stretch:normal;font-size:68.37891388px;font-family:Laksaman;-inkscape-font-specification:'Laksaman, Bold';font-variant-ligatures:normal;font-variant-caps:normal;font-variant-numeric:normal;font-feature-settings:normal;text-align:start;writing-mode:lr-tb;text-anchor:start;fill:#2f50d4;fill-opacity:1;stroke-width:1.7094816"
         id="path824" />
      <path
         d="m 45.861,172.11748 q 7.111408,0 11.214142,4.37625 4.102735,4.37626 4.102735,11.76118 v 19.82988 H 54.68188 v -19.82988 q 0,-10.73549 -9.778184,-10.73549 -3.487325,0 -6.97465,3.21381 -3.487324,3.21381 -3.487324,6.49599 v 20.85557 h -6.495997 v -25.71047 q 0,-6.42762 -0.820547,-9.36791 h 6.085723 q 0.68379,1.64109 0.68379,4.23949 4.923281,-5.12842 11.966309,-5.12842 z"
         style="font-style:normal;font-variant:normal;font-weight:bold;font-stretch:normal;font-size:68.37891388px;font-family:Laksaman;-inkscape-font-specification:'Laksaman, Bold';font-variant-ligatures:normal;font-variant-caps:normal;font-variant-numeric:normal;font-feature-settings:normal;text-align:start;writing-mode:lr-tb;text-anchor:start;fill:#2f50d4;fill-opacity:1;stroke-width:1.7094816"
         id="path826" />
      <path
         d="m 105.89767,208.08479 h -6.154107 q -0.341894,-1.23082 -0.341894,-3.82922 -4.923282,4.78653 -12.444963,4.78653 -7.795196,0 -12.923614,-5.33356 -5.06004,-5.40193 -5.06004,-13.81254 0,-7.93195 4.923282,-12.99199 4.991661,-5.12842 12.58172,-5.12842 7.658438,0 12.513341,4.8549 v -20.37691 h 6.495995 v 42.4633 q 0,4.30787 0.41028,9.36791 z m -18.393932,-4.71814 q 4.854903,0 8.13709,-2.18813 3.350567,-2.2565 3.350567,-6.35924 v -8.00033 q 0,-3.82922 -3.897598,-6.76951 -3.829219,-2.94029 -8.000333,-2.94029 -5.265176,0 -8.547364,3.62408 -3.213809,3.62408 -3.213809,9.16277 0,6.1541 3.14543,9.84657 3.213809,3.62408 9.026017,3.62408 z"
         style="font-style:normal;font-variant:normal;font-weight:bold;font-stretch:normal;font-size:68.37891388px;font-family:Laksaman;-inkscape-font-specification:'Laksaman, Bold';font-variant-ligatures:normal;font-variant-caps:normal;font-variant-numeric:normal;font-feature-settings:normal;text-align:start;writing-mode:lr-tb;text-anchor:start;fill:#2f50d4;fill-opacity:1;stroke-width:1.7094816"
         id="path828" />
    </g>
  </g>
</svg>
