<svg version="1.1" xmlns="http://www.w3.org/2000/svg" xmlns:xlink="http://www.w3.org/1999/xlink" x="0px" y="0px" width="168.7" height="80" viewBox="0 0 168.7 80" style="enable-background:new 0 0 168.7 80;" xml:space="preserve">
<path id="Path_2" style="fill:#76B82A;" d="M150.6,80H0V0h168.7v61.9C168.7,71.9,160.6,80,150.6,80L150.6,80L150.6,80z"/>
<path id="Path_3" style="fill:#FFFFFF;" d="M48.2,17.9h-3.8v5h-2.8v3.4h2.8v6.1c0,3.8,2.1,5.9,5.8,5.9H53v-3.7h-2.6  c-1.2,0-2.2-1-2.3-2.2c0,0,0,0,0,0v-6.1H53v-3.4h-4.9V17.9z"/>
<path id="Path_4" style="fill:#FFFFFF;" d="M141.4,17.9h-3.8v5h-2.8v3.4h2.8v6.1c0,3.8,2.1,5.9,5.8,5.9h2.8v-3.7h-2.5  c-1.2,0-2.2-1-2.3-2.2c0,0,0,0,0,0v-6.1h4.9v-3.4h-4.9L141.4,17.9z"/>
<path id="Path_5" style="fill:#FFFFFF;" d="M44.7,41.6c-4.4,0-7.9,3.6-7.8,8c0,4.4,3.6,7.9,8,7.8s7.9-3.6,7.8-8c0-2.1-0.9-4-2.3-5.5  C48.9,42.4,46.8,41.5,44.7,41.6z M44.7,54c-2.4-0.1-4.3-2.1-4.2-4.5c0-2.3,1.9-4.2,4.2-4.2c2.3,0,4.2,1.9,4.2,4.2c0,0,0,0,0,0  C49,51.9,47.1,53.9,44.7,54z"/>
<path id="Path_6" style="fill:#FFFFFF;" d="M30.7,45.1c1.3,0,2.6,0.6,3.5,1.5l2.1-2.6c-1.5-1.5-3.6-2.4-5.7-2.5  c-4.4,0-7.9,3.6-7.9,8c0,4.3,3.5,7.8,7.8,7.9c2.2-0.1,4.3-1,5.8-2.5l-2.3-2.6c-1.5,1.8-4.1,2.1-5.9,0.7c-1.1-0.9-1.7-2.2-1.6-3.5  C26.5,47.1,28.4,45.2,30.7,45.1z"/>
<path id="Path_7" style="fill:#FFFFFF;" d="M58.8,29c0-1.6,1.3-3,3-3s3,1.3,3,3l0,0v9.2h3.8v-9.6c0-3.7-2.7-6.1-6.3-6.1  c-1.2,0-2.4,0.3-3.4,1.1v-6.8H55v21.3h3.8L58.8,29z"/>
<path id="Path_8" style="fill:#FFFFFF;" d="M111,38.5c2.4,0,4.8-0.9,6.7-2.5l-2.3-2.7c-1.2,1-2.8,1.6-4.4,1.6c-1.7,0-3.3-1-4-2.5  h11.7c0.1-5.2-2.4-9.7-7.9-9.7c-4.4,0.1-7.9,3.7-7.8,8.1C103,35.1,106.6,38.5,111,38.5L111,38.5z M110.7,26.1c1.9-0.1,3.7,1.2,4,3.2  h-7.9C107.1,27.4,108.8,26,110.7,26.1L110.7,26.1z"/>
<path id="Path_9" style="fill:#FFFFFF;" d="M124.3,29.1c0-1.6,1.4-2.9,3-2.9c1.6,0,2.9,1.3,2.9,2.9v9.2h3.8v-9.6  c0-3.7-2.7-6.1-6.3-6.1c-1.5,0-2.9,0.5-4,1.5v-1.3h-3.2v15.4h3.8V29.1z"/>
<path id="Path_10" style="fill:#FFFFFF;" d="M110.9,43.4c-1.4-1.2-3.1-1.9-5-1.9c-4.3,0.1-7.7,3.6-7.6,7.9c0,4.4,3.5,7.9,7.8,8  c1.7,0,3.4-0.6,4.8-1.7v1.5h3.2V41.8h-3.2V43.4z M106.3,53.9c-2.4-0.1-4.2-2.1-4.1-4.5c-0.1-2.3,1.8-4.2,4.1-4.3c0,0,0,0,0.1,0  c2.3,0,4.2,2,4.1,4.3C110.5,51.8,108.7,53.8,106.3,53.9L106.3,53.9z"/>
<path id="Path_11" style="fill:#FFFFFF;" d="M139.5,61.1c-1.5,0-2.7-1.2-2.8-2.7H133c0.1,3.6,2.5,6.1,6.5,6.1s6.5-2.5,6.5-6.1h-3.8  C142.2,59.9,141,61.1,139.5,61.1z"/>
<path id="Path_12" style="fill:#FFFFFF;" d="M124.2,41.6c-1.5,0-2.9,0.5-4,1.5v-1.3H117v15.4h3.8v-9.2c0-1.6,1.3-3,3-3  c1.6,0,3,1.3,3,3v9.2h3.8v-9.6C130.5,44,127.8,41.6,124.2,41.6z"/>
<path id="Path_13" style="fill:#FFFFFF;" d="M142.5,41.8V51c0,1.6-1.2,2.9-2.8,2.9c-1.6,0-2.9-1.2-2.9-2.8c0,0,0-0.1,0-0.1v-9.2H133  v9c0,3.7,3.1,6.6,6.8,6.6c3.6,0,6.6-3,6.6-6.6v-9H142.5z"/>
<path id="Path_14" style="fill:#FFFFFF;" d="M100.5,26.3h1.8v-3.5h-2.1c-1.1,0-2.2,0.3-3.1,1v-1h-3.2v15.4h3.8v-9.1  c-0.1-1.5,1.1-2.7,2.6-2.8C100.3,26.3,100.4,26.3,100.5,26.3z"/>
<path id="Path_15" style="fill:#FFFFFF;" d="M71.7,41.6c-1.8,0-3.6,0.8-4.7,2.2c-1.2-1.5-3-2.3-5-2.2c-1.5,0-2.9,0.5-4,1.5v-1.3  h-3.2v15.4h3.8v-9.2c0-1.6,1.3-3,3-3s3,1.3,3,3v9.2h3.8v-9.2c0-1.6,1.3-3,3-3s3,1.3,3,3v9.2H78v-9.6C78,44,75.3,41.6,71.7,41.6z"/>
<path id="Path_16" style="fill:#FFFFFF;" d="M82.9,33.3c-1.2,1-2.8,1.6-4.4,1.6c-1.7,0-3.3-1-4-2.5h11.6c0.1-5.2-2.4-9.7-7.9-9.7  c-4.4,0.1-7.9,3.7-7.8,8.1s3.7,7.9,8.1,7.8c2.4,0,4.8-0.9,6.7-2.5L82.9,33.3z M78.2,26.1c1.9-0.1,3.7,1.2,4,3.2h-7.8  C74.6,27.4,76.3,26,78.2,26.1z"/>
<path id="Path_17" style="fill:#FFFFFF;" d="M88.8,41.6c-1.8,0-3.6,0.7-5,1.9v-1.7h-3.2v22.8h3.8v-8.4c1.2,0.8,2.7,1.3,4.2,1.3  c4.4-0.1,7.9-3.6,7.8-8C96.5,45.2,93.1,41.6,88.8,41.6z M88.3,53.9c-2.4-0.1-4.2-2.1-4.1-4.5c-0.1-2.3,1.7-4.2,4-4.3  c2.3-0.1,4.2,1.7,4.3,4c0,0.1,0,0.2,0,0.3C92.5,51.8,90.7,53.8,88.3,53.9C88.3,53.9,88.3,53.9,88.3,53.9L88.3,53.9z"/>
</svg>